G04 #@! TF.GenerationSoftware,KiCad,Pcbnew,(5.1.5)-3*
G04 #@! TF.CreationDate,2020-09-19T18:20:04+02:00*
G04 #@! TF.ProjectId,PedalCtrl,50656461-6c43-4747-926c-2e6b69636164,v0.0*
G04 #@! TF.SameCoordinates,Original*
G04 #@! TF.FileFunction,Legend,Top*
G04 #@! TF.FilePolarity,Positive*
%FSLAX46Y46*%
G04 Gerber Fmt 4.6, Leading zero omitted, Abs format (unit mm)*
G04 Created by KiCad (PCBNEW (5.1.5)-3) date 2020-09-19 18:20:04*
%MOMM*%
%LPD*%
G04 APERTURE LIST*
%ADD10C,0.250000*%
%ADD11C,0.625000*%
%ADD12C,0.500000*%
%ADD13C,0.100000*%
%ADD14C,0.300000*%
%ADD15C,0.120000*%
%ADD16C,0.150000*%
G04 APERTURE END LIST*
D10*
X229020714Y-38893571D02*
X229687380Y-38655476D01*
X229020714Y-38417380D01*
X228687380Y-37845952D02*
X228687380Y-37750714D01*
X228735000Y-37655476D01*
X228782619Y-37607857D01*
X228877857Y-37560238D01*
X229068333Y-37512619D01*
X229306428Y-37512619D01*
X229496904Y-37560238D01*
X229592142Y-37607857D01*
X229639761Y-37655476D01*
X229687380Y-37750714D01*
X229687380Y-37845952D01*
X229639761Y-37941190D01*
X229592142Y-37988809D01*
X229496904Y-38036428D01*
X229306428Y-38084047D01*
X229068333Y-38084047D01*
X228877857Y-38036428D01*
X228782619Y-37988809D01*
X228735000Y-37941190D01*
X228687380Y-37845952D01*
X229592142Y-37084047D02*
X229639761Y-37036428D01*
X229687380Y-37084047D01*
X229639761Y-37131666D01*
X229592142Y-37084047D01*
X229687380Y-37084047D01*
X228687380Y-36417380D02*
X228687380Y-36322142D01*
X228735000Y-36226904D01*
X228782619Y-36179285D01*
X228877857Y-36131666D01*
X229068333Y-36084047D01*
X229306428Y-36084047D01*
X229496904Y-36131666D01*
X229592142Y-36179285D01*
X229639761Y-36226904D01*
X229687380Y-36322142D01*
X229687380Y-36417380D01*
X229639761Y-36512619D01*
X229592142Y-36560238D01*
X229496904Y-36607857D01*
X229306428Y-36655476D01*
X229068333Y-36655476D01*
X228877857Y-36607857D01*
X228782619Y-36560238D01*
X228735000Y-36512619D01*
X228687380Y-36417380D01*
D11*
X225236904Y-51187559D02*
X225355952Y-50830416D01*
X225355952Y-50235178D01*
X225236904Y-49997083D01*
X225117857Y-49878035D01*
X224879761Y-49758988D01*
X224641666Y-49758988D01*
X224403571Y-49878035D01*
X224284523Y-49997083D01*
X224165476Y-50235178D01*
X224046428Y-50711369D01*
X223927380Y-50949464D01*
X223808333Y-51068511D01*
X223570238Y-51187559D01*
X223332142Y-51187559D01*
X223094047Y-51068511D01*
X222975000Y-50949464D01*
X222855952Y-50711369D01*
X222855952Y-50116130D01*
X222975000Y-49758988D01*
X225117857Y-47258988D02*
X225236904Y-47378035D01*
X225355952Y-47735178D01*
X225355952Y-47973273D01*
X225236904Y-48330416D01*
X224998809Y-48568511D01*
X224760714Y-48687559D01*
X224284523Y-48806607D01*
X223927380Y-48806607D01*
X223451190Y-48687559D01*
X223213095Y-48568511D01*
X222975000Y-48330416D01*
X222855952Y-47973273D01*
X222855952Y-47735178D01*
X222975000Y-47378035D01*
X223094047Y-47258988D01*
X225355952Y-46187559D02*
X222855952Y-46187559D01*
X224046428Y-46187559D02*
X224046428Y-44758988D01*
X225355952Y-44758988D02*
X222855952Y-44758988D01*
X225355952Y-43568511D02*
X222855952Y-43568511D01*
X225355952Y-41187559D02*
X225355952Y-42378035D01*
X222855952Y-42378035D01*
X225355952Y-40354226D02*
X222855952Y-40354226D01*
X225355952Y-38925654D02*
X223927380Y-39997083D01*
X222855952Y-38925654D02*
X224284523Y-40354226D01*
X229730952Y-51068511D02*
X227230952Y-51068511D01*
X227230952Y-50116130D01*
X227350000Y-49878035D01*
X227469047Y-49758988D01*
X227707142Y-49639940D01*
X228064285Y-49639940D01*
X228302380Y-49758988D01*
X228421428Y-49878035D01*
X228540476Y-50116130D01*
X228540476Y-51068511D01*
X228421428Y-48568511D02*
X228421428Y-47735178D01*
X229730952Y-47378035D02*
X229730952Y-48568511D01*
X227230952Y-48568511D01*
X227230952Y-47378035D01*
X229730952Y-46306607D02*
X227230952Y-46306607D01*
X227230952Y-45711369D01*
X227350000Y-45354226D01*
X227588095Y-45116130D01*
X227826190Y-44997083D01*
X228302380Y-44878035D01*
X228659523Y-44878035D01*
X229135714Y-44997083D01*
X229373809Y-45116130D01*
X229611904Y-45354226D01*
X229730952Y-45711369D01*
X229730952Y-46306607D01*
X229016666Y-43925654D02*
X229016666Y-42735178D01*
X229730952Y-44163750D02*
X227230952Y-43330416D01*
X229730952Y-42497083D01*
X229730952Y-40473273D02*
X229730952Y-41663750D01*
X227230952Y-41663750D01*
X233867857Y-49639940D02*
X233986904Y-49758988D01*
X234105952Y-50116130D01*
X234105952Y-50354226D01*
X233986904Y-50711369D01*
X233748809Y-50949464D01*
X233510714Y-51068511D01*
X233034523Y-51187559D01*
X232677380Y-51187559D01*
X232201190Y-51068511D01*
X231963095Y-50949464D01*
X231725000Y-50711369D01*
X231605952Y-50354226D01*
X231605952Y-50116130D01*
X231725000Y-49758988D01*
X231844047Y-49639940D01*
X231605952Y-48092321D02*
X231605952Y-47616130D01*
X231725000Y-47378035D01*
X231963095Y-47139940D01*
X232439285Y-47020892D01*
X233272619Y-47020892D01*
X233748809Y-47139940D01*
X233986904Y-47378035D01*
X234105952Y-47616130D01*
X234105952Y-48092321D01*
X233986904Y-48330416D01*
X233748809Y-48568511D01*
X233272619Y-48687559D01*
X232439285Y-48687559D01*
X231963095Y-48568511D01*
X231725000Y-48330416D01*
X231605952Y-48092321D01*
X234105952Y-45949464D02*
X231605952Y-45949464D01*
X234105952Y-44520892D01*
X231605952Y-44520892D01*
X231605952Y-43687559D02*
X231605952Y-42258988D01*
X234105952Y-42973273D02*
X231605952Y-42973273D01*
X234105952Y-39997083D02*
X232915476Y-40830416D01*
X234105952Y-41425654D02*
X231605952Y-41425654D01*
X231605952Y-40473273D01*
X231725000Y-40235178D01*
X231844047Y-40116130D01*
X232082142Y-39997083D01*
X232439285Y-39997083D01*
X232677380Y-40116130D01*
X232796428Y-40235178D01*
X232915476Y-40473273D01*
X232915476Y-41425654D01*
X231605952Y-38449464D02*
X231605952Y-37973273D01*
X231725000Y-37735178D01*
X231963095Y-37497083D01*
X232439285Y-37378035D01*
X233272619Y-37378035D01*
X233748809Y-37497083D01*
X233986904Y-37735178D01*
X234105952Y-37973273D01*
X234105952Y-38449464D01*
X233986904Y-38687559D01*
X233748809Y-38925654D01*
X233272619Y-39044702D01*
X232439285Y-39044702D01*
X231963095Y-38925654D01*
X231725000Y-38687559D01*
X231605952Y-38449464D01*
X234105952Y-35116130D02*
X234105952Y-36306607D01*
X231605952Y-36306607D01*
D12*
X180118095Y-31892857D02*
X181641904Y-31892857D01*
X180880000Y-32654761D02*
X180880000Y-31130952D01*
X184118095Y-31892857D02*
X185641904Y-31892857D01*
D11*
X176390952Y-28673809D02*
X176390952Y-30102380D01*
X176390952Y-29388095D02*
X173890952Y-29388095D01*
X174248095Y-29626190D01*
X174486190Y-29864285D01*
X174605238Y-30102380D01*
X174129047Y-27721428D02*
X174010000Y-27602380D01*
X173890952Y-27364285D01*
X173890952Y-26769047D01*
X174010000Y-26530952D01*
X174129047Y-26411904D01*
X174367142Y-26292857D01*
X174605238Y-26292857D01*
X174962380Y-26411904D01*
X176390952Y-27840476D01*
X176390952Y-26292857D01*
X173890952Y-25578571D02*
X176390952Y-24745238D01*
X173890952Y-23911904D01*
X176390952Y-23078571D02*
X174724285Y-23078571D01*
X173890952Y-23078571D02*
X174010000Y-23197619D01*
X174129047Y-23078571D01*
X174010000Y-22959523D01*
X173890952Y-23078571D01*
X174129047Y-23078571D01*
X174724285Y-21888095D02*
X176390952Y-21888095D01*
X174962380Y-21888095D02*
X174843333Y-21769047D01*
X174724285Y-21530952D01*
X174724285Y-21173809D01*
X174843333Y-20935714D01*
X175081428Y-20816666D01*
X176390952Y-20816666D01*
X201533571Y-52565952D02*
X200343095Y-52565952D01*
X200343095Y-50065952D01*
X204271666Y-52565952D02*
X204271666Y-50065952D01*
X205700238Y-52565952D01*
X205700238Y-50065952D01*
X208795476Y-51256428D02*
X209628809Y-51256428D01*
X209985952Y-52565952D02*
X208795476Y-52565952D01*
X208795476Y-50065952D01*
X209985952Y-50065952D01*
X221853571Y-33515952D02*
X220663095Y-33515952D01*
X220663095Y-31015952D01*
X224591666Y-33515952D02*
X224591666Y-31015952D01*
X226020238Y-33515952D01*
X226020238Y-31015952D01*
X229115476Y-32206428D02*
X229948809Y-32206428D01*
X230305952Y-33515952D02*
X229115476Y-33515952D01*
X229115476Y-31015952D01*
X230305952Y-31015952D01*
X201533571Y-33515952D02*
X200343095Y-33515952D01*
X200343095Y-31015952D01*
X204271666Y-33515952D02*
X204271666Y-31015952D01*
X205700238Y-33515952D01*
X205700238Y-31015952D01*
X208795476Y-32206428D02*
X209628809Y-32206428D01*
X209985952Y-33515952D02*
X208795476Y-33515952D01*
X208795476Y-31015952D01*
X209985952Y-31015952D01*
D13*
G36*
X164465000Y-45720000D02*
G01*
X163195000Y-44450000D01*
X165735000Y-44450000D01*
X164465000Y-45720000D01*
G37*
X164465000Y-45720000D02*
X163195000Y-44450000D01*
X165735000Y-44450000D01*
X164465000Y-45720000D01*
D10*
X187579047Y-63571428D02*
X188340952Y-63571428D01*
X187960000Y-63952380D02*
X187960000Y-63190476D01*
X180229047Y-63571428D02*
X180990952Y-63571428D01*
X182229047Y-63571428D02*
X182990952Y-63571428D01*
X182610000Y-63952380D02*
X182610000Y-63190476D01*
X172609047Y-63571428D02*
X173370952Y-63571428D01*
X174609047Y-63571428D02*
X175370952Y-63571428D01*
X174990000Y-63952380D02*
X174990000Y-63190476D01*
D14*
X173025714Y-58463571D02*
X172311428Y-58463571D01*
X172311428Y-56963571D01*
X173525714Y-57677857D02*
X174025714Y-57677857D01*
X174240000Y-58463571D02*
X173525714Y-58463571D01*
X173525714Y-56963571D01*
X174240000Y-56963571D01*
X174882857Y-58463571D02*
X174882857Y-56963571D01*
X175240000Y-56963571D01*
X175454285Y-57035000D01*
X175597142Y-57177857D01*
X175668571Y-57320714D01*
X175740000Y-57606428D01*
X175740000Y-57820714D01*
X175668571Y-58106428D01*
X175597142Y-58249285D01*
X175454285Y-58392142D01*
X175240000Y-58463571D01*
X174882857Y-58463571D01*
X178824285Y-58463571D02*
X178824285Y-56963571D01*
X179395714Y-56963571D01*
X179538571Y-57035000D01*
X179610000Y-57106428D01*
X179681428Y-57249285D01*
X179681428Y-57463571D01*
X179610000Y-57606428D01*
X179538571Y-57677857D01*
X179395714Y-57749285D01*
X178824285Y-57749285D01*
X180895714Y-58392142D02*
X180752857Y-58463571D01*
X180467142Y-58463571D01*
X180324285Y-58392142D01*
X180252857Y-58249285D01*
X180252857Y-57677857D01*
X180324285Y-57535000D01*
X180467142Y-57463571D01*
X180752857Y-57463571D01*
X180895714Y-57535000D01*
X180967142Y-57677857D01*
X180967142Y-57820714D01*
X180252857Y-57963571D01*
X182252857Y-58463571D02*
X182252857Y-56963571D01*
X182252857Y-58392142D02*
X182110000Y-58463571D01*
X181824285Y-58463571D01*
X181681428Y-58392142D01*
X181610000Y-58320714D01*
X181538571Y-58177857D01*
X181538571Y-57749285D01*
X181610000Y-57606428D01*
X181681428Y-57535000D01*
X181824285Y-57463571D01*
X182110000Y-57463571D01*
X182252857Y-57535000D01*
X183610000Y-58463571D02*
X183610000Y-57677857D01*
X183538571Y-57535000D01*
X183395714Y-57463571D01*
X183110000Y-57463571D01*
X182967142Y-57535000D01*
X183610000Y-58392142D02*
X183467142Y-58463571D01*
X183110000Y-58463571D01*
X182967142Y-58392142D01*
X182895714Y-58249285D01*
X182895714Y-58106428D01*
X182967142Y-57963571D01*
X183110000Y-57892142D01*
X183467142Y-57892142D01*
X183610000Y-57820714D01*
X184538571Y-58463571D02*
X184395714Y-58392142D01*
X184324285Y-58249285D01*
X184324285Y-56963571D01*
X191813571Y-60527142D02*
X190313571Y-60527142D01*
X190313571Y-59955714D01*
X190385000Y-59812857D01*
X190456428Y-59741428D01*
X190599285Y-59670000D01*
X190813571Y-59670000D01*
X190956428Y-59741428D01*
X191027857Y-59812857D01*
X191099285Y-59955714D01*
X191099285Y-60527142D01*
X190313571Y-58741428D02*
X190313571Y-58455714D01*
X190385000Y-58312857D01*
X190527857Y-58170000D01*
X190813571Y-58098571D01*
X191313571Y-58098571D01*
X191599285Y-58170000D01*
X191742142Y-58312857D01*
X191813571Y-58455714D01*
X191813571Y-58741428D01*
X191742142Y-58884285D01*
X191599285Y-59027142D01*
X191313571Y-59098571D01*
X190813571Y-59098571D01*
X190527857Y-59027142D01*
X190385000Y-58884285D01*
X190313571Y-58741428D01*
X190313571Y-57670000D02*
X190313571Y-56812857D01*
X191813571Y-57241428D02*
X190313571Y-57241428D01*
X191813571Y-56312857D02*
X190313571Y-56312857D01*
D11*
X195996666Y-63519047D02*
X195996666Y-62328571D01*
X196710952Y-63757142D02*
X194210952Y-62923809D01*
X196710952Y-62090476D01*
X196472857Y-59828571D02*
X196591904Y-59947619D01*
X196710952Y-60304761D01*
X196710952Y-60542857D01*
X196591904Y-60900000D01*
X196353809Y-61138095D01*
X196115714Y-61257142D01*
X195639523Y-61376190D01*
X195282380Y-61376190D01*
X194806190Y-61257142D01*
X194568095Y-61138095D01*
X194330000Y-60900000D01*
X194210952Y-60542857D01*
X194210952Y-60304761D01*
X194330000Y-59947619D01*
X194449047Y-59828571D01*
X194210952Y-56376190D02*
X194210952Y-55900000D01*
X194330000Y-55661904D01*
X194568095Y-55423809D01*
X195044285Y-55304761D01*
X195877619Y-55304761D01*
X196353809Y-55423809D01*
X196591904Y-55661904D01*
X196710952Y-55900000D01*
X196710952Y-56376190D01*
X196591904Y-56614285D01*
X196353809Y-56852380D01*
X195877619Y-56971428D01*
X195044285Y-56971428D01*
X194568095Y-56852380D01*
X194330000Y-56614285D01*
X194210952Y-56376190D01*
X194210952Y-54233333D02*
X196234761Y-54233333D01*
X196472857Y-54114285D01*
X196591904Y-53995238D01*
X196710952Y-53757142D01*
X196710952Y-53280952D01*
X196591904Y-53042857D01*
X196472857Y-52923809D01*
X196234761Y-52804761D01*
X194210952Y-52804761D01*
X194210952Y-51971428D02*
X194210952Y-50542857D01*
X196710952Y-51257142D02*
X194210952Y-51257142D01*
X216911904Y-29348333D02*
X217030952Y-28991190D01*
X217030952Y-28395952D01*
X216911904Y-28157857D01*
X216792857Y-28038809D01*
X216554761Y-27919761D01*
X216316666Y-27919761D01*
X216078571Y-28038809D01*
X215959523Y-28157857D01*
X215840476Y-28395952D01*
X215721428Y-28872142D01*
X215602380Y-29110238D01*
X215483333Y-29229285D01*
X215245238Y-29348333D01*
X215007142Y-29348333D01*
X214769047Y-29229285D01*
X214650000Y-29110238D01*
X214530952Y-28872142D01*
X214530952Y-28276904D01*
X214650000Y-27919761D01*
X217030952Y-26848333D02*
X214530952Y-26848333D01*
X216316666Y-26015000D01*
X214530952Y-25181666D01*
X217030952Y-25181666D01*
X217030952Y-23991190D02*
X214530952Y-23991190D01*
X214530952Y-23038809D01*
X214650000Y-22800714D01*
X214769047Y-22681666D01*
X215007142Y-22562619D01*
X215364285Y-22562619D01*
X215602380Y-22681666D01*
X215721428Y-22800714D01*
X215840476Y-23038809D01*
X215840476Y-23991190D01*
X216911904Y-21610238D02*
X217030952Y-21253095D01*
X217030952Y-20657857D01*
X216911904Y-20419761D01*
X216792857Y-20300714D01*
X216554761Y-20181666D01*
X216316666Y-20181666D01*
X216078571Y-20300714D01*
X215959523Y-20419761D01*
X215840476Y-20657857D01*
X215721428Y-21134047D01*
X215602380Y-21372142D01*
X215483333Y-21491190D01*
X215245238Y-21610238D01*
X215007142Y-21610238D01*
X214769047Y-21491190D01*
X214650000Y-21372142D01*
X214530952Y-21134047D01*
X214530952Y-20538809D01*
X214650000Y-20181666D01*
X195996666Y-30102380D02*
X195996666Y-28911904D01*
X196710952Y-30340476D02*
X194210952Y-29507142D01*
X196710952Y-28673809D01*
X196472857Y-26411904D02*
X196591904Y-26530952D01*
X196710952Y-26888095D01*
X196710952Y-27126190D01*
X196591904Y-27483333D01*
X196353809Y-27721428D01*
X196115714Y-27840476D01*
X195639523Y-27959523D01*
X195282380Y-27959523D01*
X194806190Y-27840476D01*
X194568095Y-27721428D01*
X194330000Y-27483333D01*
X194210952Y-27126190D01*
X194210952Y-26888095D01*
X194330000Y-26530952D01*
X194449047Y-26411904D01*
X196710952Y-23435714D02*
X194210952Y-23435714D01*
X196710952Y-22245238D02*
X194210952Y-22245238D01*
X196710952Y-20816666D01*
X194210952Y-20816666D01*
D12*
X193040000Y-64135000D02*
X193040000Y-48895000D01*
X193040000Y-34925000D02*
X193040000Y-19685000D01*
D15*
X179010000Y-62290000D02*
X179010000Y-60960000D01*
X180340000Y-62290000D02*
X179010000Y-62290000D01*
X181610000Y-62290000D02*
X181610000Y-59630000D01*
X181610000Y-59630000D02*
X184210000Y-59630000D01*
X181610000Y-62290000D02*
X184210000Y-62290000D01*
X184210000Y-62290000D02*
X184210000Y-59630000D01*
X171390000Y-62290000D02*
X171390000Y-60960000D01*
X172720000Y-62290000D02*
X171390000Y-62290000D01*
X173990000Y-62290000D02*
X173990000Y-59630000D01*
X173990000Y-59630000D02*
X176590000Y-59630000D01*
X173990000Y-62290000D02*
X176590000Y-62290000D01*
X176590000Y-62290000D02*
X176590000Y-59630000D01*
X186630000Y-54550000D02*
X187960000Y-54550000D01*
X186630000Y-55880000D02*
X186630000Y-54550000D01*
X186630000Y-57150000D02*
X189290000Y-57150000D01*
X189290000Y-57150000D02*
X189290000Y-62290000D01*
X186630000Y-57150000D02*
X186630000Y-62290000D01*
X186630000Y-62290000D02*
X189290000Y-62290000D01*
X172740000Y-48260000D02*
X172740000Y-44810000D01*
X172740000Y-48260000D02*
X172740000Y-50210000D01*
X167620000Y-48260000D02*
X167620000Y-46310000D01*
X167620000Y-48260000D02*
X167620000Y-50210000D01*
X177870000Y-40645000D02*
X176770000Y-40645000D01*
X177870000Y-40915000D02*
X177870000Y-40645000D01*
X179370000Y-40915000D02*
X177870000Y-40915000D01*
X177870000Y-34285000D02*
X175040000Y-34285000D01*
X177870000Y-34015000D02*
X177870000Y-34285000D01*
X179370000Y-34015000D02*
X177870000Y-34015000D01*
X176367221Y-55755000D02*
X176692779Y-55755000D01*
X176367221Y-54735000D02*
X176692779Y-54735000D01*
X170804721Y-55755000D02*
X171130279Y-55755000D01*
X170804721Y-54735000D02*
X171130279Y-54735000D01*
X176367221Y-52580000D02*
X176692779Y-52580000D01*
X176367221Y-51560000D02*
X176692779Y-51560000D01*
X168400000Y-61122779D02*
X168400000Y-60797221D01*
X169420000Y-61122779D02*
X169420000Y-60797221D01*
X177870000Y-49535000D02*
X176770000Y-49535000D01*
X177870000Y-49805000D02*
X177870000Y-49535000D01*
X179370000Y-49805000D02*
X177870000Y-49805000D01*
X177870000Y-43175000D02*
X175040000Y-43175000D01*
X177870000Y-42905000D02*
X177870000Y-43175000D01*
X179370000Y-42905000D02*
X177870000Y-42905000D01*
X195580000Y-39370000D02*
X196850000Y-39370000D01*
X195580000Y-44450000D02*
X195580000Y-39370000D01*
X198120000Y-44450000D02*
X195580000Y-44450000D01*
X198120000Y-39370000D02*
X198120000Y-44450000D01*
X196850000Y-39370000D02*
X198120000Y-39370000D01*
X196850000Y-38100000D02*
X196850000Y-39370000D01*
X195580000Y-38100000D02*
X196850000Y-38100000D01*
X196850000Y-45720000D02*
X195580000Y-45720000D01*
X196850000Y-44450000D02*
X196850000Y-45720000D01*
X195580000Y-40640000D02*
X198120000Y-41910000D01*
X189940000Y-35500000D02*
X219140000Y-35500000D01*
X219140000Y-35500000D02*
X219140000Y-36700000D01*
X219140000Y-39500000D02*
X219140000Y-44200000D01*
X219140000Y-47000000D02*
X219140000Y-48200000D01*
X219140000Y-48200000D02*
X189940000Y-48200000D01*
X189940000Y-48200000D02*
X189940000Y-35500000D01*
X192140000Y-35300000D02*
X189740000Y-35300000D01*
X189740000Y-37700000D02*
X189740000Y-35300000D01*
X218180000Y-30300000D02*
X218680000Y-30300000D01*
X218180000Y-29560000D02*
X218180000Y-30300000D01*
X229753000Y-26423000D02*
X229706000Y-26469000D01*
X232050000Y-24125000D02*
X232015000Y-24161000D01*
X229946000Y-26639000D02*
X229911000Y-26674000D01*
X232255000Y-24331000D02*
X232208000Y-24377000D01*
X224753000Y-26423000D02*
X224706000Y-26469000D01*
X227050000Y-24125000D02*
X227015000Y-24161000D01*
X224946000Y-26639000D02*
X224911000Y-26674000D01*
X227255000Y-24331000D02*
X227208000Y-24377000D01*
X233540000Y-20139000D02*
X233540000Y-30060000D01*
X218420000Y-20139000D02*
X218420000Y-30060000D01*
X218420000Y-30060000D02*
X233540000Y-30060000D01*
X218420000Y-20139000D02*
X233540000Y-20139000D01*
X218420000Y-23099000D02*
X233540000Y-23099000D01*
X218420000Y-28000000D02*
X233540000Y-28000000D01*
X218420000Y-29500000D02*
X233540000Y-29500000D01*
X232660000Y-25400000D02*
G75*
G03X232660000Y-25400000I-1680000J0D01*
G01*
X227660000Y-25400000D02*
G75*
G03X227660000Y-25400000I-1680000J0D01*
G01*
X221008805Y-27080253D02*
G75*
G02X220296000Y-26935000I-28805J1680253D01*
G01*
X219444574Y-26083042D02*
G75*
G02X219445000Y-24716000I1535426J683042D01*
G01*
X220296958Y-23864574D02*
G75*
G02X221664000Y-23865000I683042J-1535426D01*
G01*
X222515426Y-24716958D02*
G75*
G02X222515000Y-26084000I-1535426J-683042D01*
G01*
X221663318Y-26934756D02*
G75*
G02X220980000Y-27080000I-683318J1534756D01*
G01*
X213460000Y-53520000D02*
X212960000Y-53520000D01*
X213460000Y-54260000D02*
X213460000Y-53520000D01*
X201887000Y-57397000D02*
X201934000Y-57351000D01*
X199590000Y-59695000D02*
X199625000Y-59659000D01*
X201694000Y-57181000D02*
X201729000Y-57146000D01*
X199385000Y-59489000D02*
X199432000Y-59443000D01*
X206887000Y-57397000D02*
X206934000Y-57351000D01*
X204590000Y-59695000D02*
X204625000Y-59659000D01*
X206694000Y-57181000D02*
X206729000Y-57146000D01*
X204385000Y-59489000D02*
X204432000Y-59443000D01*
X198100000Y-63681000D02*
X198100000Y-53760000D01*
X213220000Y-63681000D02*
X213220000Y-53760000D01*
X213220000Y-53760000D02*
X198100000Y-53760000D01*
X213220000Y-63681000D02*
X198100000Y-63681000D01*
X213220000Y-60721000D02*
X198100000Y-60721000D01*
X213220000Y-55820000D02*
X198100000Y-55820000D01*
X213220000Y-54320000D02*
X198100000Y-54320000D01*
X202340000Y-58420000D02*
G75*
G03X202340000Y-58420000I-1680000J0D01*
G01*
X207340000Y-58420000D02*
G75*
G03X207340000Y-58420000I-1680000J0D01*
G01*
X210631195Y-56739747D02*
G75*
G02X211344000Y-56885000I28805J-1680253D01*
G01*
X212195426Y-57736958D02*
G75*
G02X212195000Y-59104000I-1535426J-683042D01*
G01*
X211343042Y-59955426D02*
G75*
G02X209976000Y-59955000I-683042J1535426D01*
G01*
X209124574Y-59103042D02*
G75*
G02X209125000Y-57736000I1535426J683042D01*
G01*
X209976682Y-56885244D02*
G75*
G02X210660000Y-56740000I683318J-1534756D01*
G01*
X163135000Y-46930000D02*
X164465000Y-46930000D01*
X163135000Y-48260000D02*
X163135000Y-46930000D01*
X163135000Y-49530000D02*
X165795000Y-49530000D01*
X165795000Y-49530000D02*
X165795000Y-62290000D01*
X163135000Y-49530000D02*
X163135000Y-62290000D01*
X163135000Y-62290000D02*
X165795000Y-62290000D01*
X197860000Y-30300000D02*
X198360000Y-30300000D01*
X197860000Y-29560000D02*
X197860000Y-30300000D01*
X209433000Y-26423000D02*
X209386000Y-26469000D01*
X211730000Y-24125000D02*
X211695000Y-24161000D01*
X209626000Y-26639000D02*
X209591000Y-26674000D01*
X211935000Y-24331000D02*
X211888000Y-24377000D01*
X204433000Y-26423000D02*
X204386000Y-26469000D01*
X206730000Y-24125000D02*
X206695000Y-24161000D01*
X204626000Y-26639000D02*
X204591000Y-26674000D01*
X206935000Y-24331000D02*
X206888000Y-24377000D01*
X213220000Y-20139000D02*
X213220000Y-30060000D01*
X198100000Y-20139000D02*
X198100000Y-30060000D01*
X198100000Y-30060000D02*
X213220000Y-30060000D01*
X198100000Y-20139000D02*
X213220000Y-20139000D01*
X198100000Y-23099000D02*
X213220000Y-23099000D01*
X198100000Y-28000000D02*
X213220000Y-28000000D01*
X198100000Y-29500000D02*
X213220000Y-29500000D01*
X212340000Y-25400000D02*
G75*
G03X212340000Y-25400000I-1680000J0D01*
G01*
X207340000Y-25400000D02*
G75*
G03X207340000Y-25400000I-1680000J0D01*
G01*
X200688805Y-27080253D02*
G75*
G02X199976000Y-26935000I-28805J1680253D01*
G01*
X199124574Y-26083042D02*
G75*
G02X199125000Y-24716000I1535426J683042D01*
G01*
X199976958Y-23864574D02*
G75*
G02X201344000Y-23865000I683042J-1535426D01*
G01*
X202195426Y-24716958D02*
G75*
G02X202195000Y-26084000I-1535426J-683042D01*
G01*
X201343318Y-26934756D02*
G75*
G02X200660000Y-27080000I-683318J1534756D01*
G01*
X177540000Y-30300000D02*
X178040000Y-30300000D01*
X177540000Y-29560000D02*
X177540000Y-30300000D01*
X184113000Y-26423000D02*
X184066000Y-26469000D01*
X186410000Y-24125000D02*
X186375000Y-24161000D01*
X184306000Y-26639000D02*
X184271000Y-26674000D01*
X186615000Y-24331000D02*
X186568000Y-24377000D01*
X187900000Y-20139000D02*
X187900000Y-30060000D01*
X177780000Y-20139000D02*
X177780000Y-30060000D01*
X177780000Y-30060000D02*
X187900000Y-30060000D01*
X177780000Y-20139000D02*
X187900000Y-20139000D01*
X177780000Y-23099000D02*
X187900000Y-23099000D01*
X177780000Y-28000000D02*
X187900000Y-28000000D01*
X177780000Y-29500000D02*
X187900000Y-29500000D01*
X187020000Y-25400000D02*
G75*
G03X187020000Y-25400000I-1680000J0D01*
G01*
X180368805Y-27080253D02*
G75*
G02X179656000Y-26935000I-28805J1680253D01*
G01*
X178804574Y-26083042D02*
G75*
G02X178805000Y-24716000I1535426J683042D01*
G01*
X179656958Y-23864574D02*
G75*
G02X181024000Y-23865000I683042J-1535426D01*
G01*
X181875426Y-24716958D02*
G75*
G02X181875000Y-26084000I-1535426J-683042D01*
G01*
X181023318Y-26934756D02*
G75*
G02X180340000Y-27080000I-683318J1534756D01*
G01*
X188960000Y-43520000D02*
X188960000Y-47370000D01*
X186960000Y-43520000D02*
X186960000Y-47370000D01*
X188960000Y-43520000D02*
X186960000Y-43520000D01*
X178725000Y-54245000D02*
X182625000Y-54245000D01*
X178725000Y-56245000D02*
X182625000Y-56245000D01*
X178725000Y-54245000D02*
X178725000Y-56245000D01*
X183225000Y-53070000D02*
X179325000Y-53070000D01*
X183225000Y-51070000D02*
X179325000Y-51070000D01*
X183225000Y-53070000D02*
X183225000Y-51070000D01*
X170977779Y-42035000D02*
X170652221Y-42035000D01*
X170977779Y-43055000D02*
X170652221Y-43055000D01*
X187797221Y-51945000D02*
X188122779Y-51945000D01*
X187797221Y-50925000D02*
X188122779Y-50925000D01*
X171683750Y-39706250D02*
X171683750Y-38918750D01*
X172077500Y-39312500D02*
X171290000Y-39312500D01*
X171050000Y-35119437D02*
X169985563Y-34055000D01*
X171050000Y-39810563D02*
X169985563Y-40875000D01*
X171050000Y-39810563D02*
X171050000Y-38525000D01*
X171050000Y-35119437D02*
X171050000Y-36405000D01*
X169985563Y-34055000D02*
X164230000Y-34055000D01*
X169985563Y-40875000D02*
X164230000Y-40875000D01*
X164230000Y-40875000D02*
X164230000Y-38525000D01*
X164230000Y-34055000D02*
X164230000Y-36405000D01*
D16*
X227838095Y-54672380D02*
X227838095Y-53672380D01*
X227838095Y-54148571D02*
X228409523Y-54148571D01*
X228409523Y-54672380D02*
X228409523Y-53672380D01*
X228838095Y-53767619D02*
X228885714Y-53720000D01*
X228980952Y-53672380D01*
X229219047Y-53672380D01*
X229314285Y-53720000D01*
X229361904Y-53767619D01*
X229409523Y-53862857D01*
X229409523Y-53958095D01*
X229361904Y-54100952D01*
X228790476Y-54672380D01*
X229409523Y-54672380D01*
X166878095Y-21652380D02*
X166878095Y-20652380D01*
X166878095Y-21128571D02*
X167449523Y-21128571D01*
X167449523Y-21652380D02*
X167449523Y-20652380D01*
X168449523Y-21652380D02*
X167878095Y-21652380D01*
X168163809Y-21652380D02*
X168163809Y-20652380D01*
X168068571Y-20795238D01*
X167973333Y-20890476D01*
X167878095Y-20938095D01*
X177462380Y-61293333D02*
X178176666Y-61293333D01*
X178319523Y-61340952D01*
X178414761Y-61436190D01*
X178462380Y-61579047D01*
X178462380Y-61674285D01*
X177462380Y-60388571D02*
X177462380Y-60579047D01*
X177510000Y-60674285D01*
X177557619Y-60721904D01*
X177700476Y-60817142D01*
X177890952Y-60864761D01*
X178271904Y-60864761D01*
X178367142Y-60817142D01*
X178414761Y-60769523D01*
X178462380Y-60674285D01*
X178462380Y-60483809D01*
X178414761Y-60388571D01*
X178367142Y-60340952D01*
X178271904Y-60293333D01*
X178033809Y-60293333D01*
X177938571Y-60340952D01*
X177890952Y-60388571D01*
X177843333Y-60483809D01*
X177843333Y-60674285D01*
X177890952Y-60769523D01*
X177938571Y-60817142D01*
X178033809Y-60864761D01*
X169842380Y-61293333D02*
X170556666Y-61293333D01*
X170699523Y-61340952D01*
X170794761Y-61436190D01*
X170842380Y-61579047D01*
X170842380Y-61674285D01*
X170175714Y-60388571D02*
X170842380Y-60388571D01*
X169794761Y-60626666D02*
X170509047Y-60864761D01*
X170509047Y-60245714D01*
X187626666Y-53002380D02*
X187626666Y-53716666D01*
X187579047Y-53859523D01*
X187483809Y-53954761D01*
X187340952Y-54002380D01*
X187245714Y-54002380D01*
X188007619Y-53002380D02*
X188626666Y-53002380D01*
X188293333Y-53383333D01*
X188436190Y-53383333D01*
X188531428Y-53430952D01*
X188579047Y-53478571D01*
X188626666Y-53573809D01*
X188626666Y-53811904D01*
X188579047Y-53907142D01*
X188531428Y-53954761D01*
X188436190Y-54002380D01*
X188150476Y-54002380D01*
X188055238Y-53954761D01*
X188007619Y-53907142D01*
X173442380Y-46481904D02*
X174251904Y-46481904D01*
X174347142Y-46434285D01*
X174394761Y-46386666D01*
X174442380Y-46291428D01*
X174442380Y-46100952D01*
X174394761Y-46005714D01*
X174347142Y-45958095D01*
X174251904Y-45910476D01*
X173442380Y-45910476D01*
X173537619Y-45481904D02*
X173490000Y-45434285D01*
X173442380Y-45339047D01*
X173442380Y-45100952D01*
X173490000Y-45005714D01*
X173537619Y-44958095D01*
X173632857Y-44910476D01*
X173728095Y-44910476D01*
X173870952Y-44958095D01*
X174442380Y-45529523D01*
X174442380Y-44910476D01*
X175133095Y-32472380D02*
X175133095Y-33281904D01*
X175180714Y-33377142D01*
X175228333Y-33424761D01*
X175323571Y-33472380D01*
X175514047Y-33472380D01*
X175609285Y-33424761D01*
X175656904Y-33377142D01*
X175704523Y-33281904D01*
X175704523Y-32472380D01*
X176704523Y-33472380D02*
X176133095Y-33472380D01*
X176418809Y-33472380D02*
X176418809Y-32472380D01*
X176323571Y-32615238D01*
X176228333Y-32710476D01*
X176133095Y-32758095D01*
X173823333Y-55697380D02*
X173490000Y-55221190D01*
X173251904Y-55697380D02*
X173251904Y-54697380D01*
X173632857Y-54697380D01*
X173728095Y-54745000D01*
X173775714Y-54792619D01*
X173823333Y-54887857D01*
X173823333Y-55030714D01*
X173775714Y-55125952D01*
X173728095Y-55173571D01*
X173632857Y-55221190D01*
X173251904Y-55221190D01*
X174728095Y-54697380D02*
X174251904Y-54697380D01*
X174204285Y-55173571D01*
X174251904Y-55125952D01*
X174347142Y-55078333D01*
X174585238Y-55078333D01*
X174680476Y-55125952D01*
X174728095Y-55173571D01*
X174775714Y-55268809D01*
X174775714Y-55506904D01*
X174728095Y-55602142D01*
X174680476Y-55649761D01*
X174585238Y-55697380D01*
X174347142Y-55697380D01*
X174251904Y-55649761D01*
X174204285Y-55602142D01*
X168260833Y-55697380D02*
X167927500Y-55221190D01*
X167689404Y-55697380D02*
X167689404Y-54697380D01*
X168070357Y-54697380D01*
X168165595Y-54745000D01*
X168213214Y-54792619D01*
X168260833Y-54887857D01*
X168260833Y-55030714D01*
X168213214Y-55125952D01*
X168165595Y-55173571D01*
X168070357Y-55221190D01*
X167689404Y-55221190D01*
X169117976Y-55030714D02*
X169117976Y-55697380D01*
X168879880Y-54649761D02*
X168641785Y-55364047D01*
X169260833Y-55364047D01*
X173823333Y-52522380D02*
X173490000Y-52046190D01*
X173251904Y-52522380D02*
X173251904Y-51522380D01*
X173632857Y-51522380D01*
X173728095Y-51570000D01*
X173775714Y-51617619D01*
X173823333Y-51712857D01*
X173823333Y-51855714D01*
X173775714Y-51950952D01*
X173728095Y-51998571D01*
X173632857Y-52046190D01*
X173251904Y-52046190D01*
X174156666Y-51522380D02*
X174775714Y-51522380D01*
X174442380Y-51903333D01*
X174585238Y-51903333D01*
X174680476Y-51950952D01*
X174728095Y-51998571D01*
X174775714Y-52093809D01*
X174775714Y-52331904D01*
X174728095Y-52427142D01*
X174680476Y-52474761D01*
X174585238Y-52522380D01*
X174299523Y-52522380D01*
X174204285Y-52474761D01*
X174156666Y-52427142D01*
X167932380Y-61126666D02*
X167456190Y-61460000D01*
X167932380Y-61698095D02*
X166932380Y-61698095D01*
X166932380Y-61317142D01*
X166980000Y-61221904D01*
X167027619Y-61174285D01*
X167122857Y-61126666D01*
X167265714Y-61126666D01*
X167360952Y-61174285D01*
X167408571Y-61221904D01*
X167456190Y-61317142D01*
X167456190Y-61698095D01*
X167027619Y-60745714D02*
X166980000Y-60698095D01*
X166932380Y-60602857D01*
X166932380Y-60364761D01*
X166980000Y-60269523D01*
X167027619Y-60221904D01*
X167122857Y-60174285D01*
X167218095Y-60174285D01*
X167360952Y-60221904D01*
X167932380Y-60793333D01*
X167932380Y-60174285D01*
X175799761Y-42402619D02*
X175704523Y-42355000D01*
X175609285Y-42259761D01*
X175466428Y-42116904D01*
X175371190Y-42069285D01*
X175275952Y-42069285D01*
X175323571Y-42307380D02*
X175228333Y-42259761D01*
X175133095Y-42164523D01*
X175085476Y-41974047D01*
X175085476Y-41640714D01*
X175133095Y-41450238D01*
X175228333Y-41355000D01*
X175323571Y-41307380D01*
X175514047Y-41307380D01*
X175609285Y-41355000D01*
X175704523Y-41450238D01*
X175752142Y-41640714D01*
X175752142Y-41974047D01*
X175704523Y-42164523D01*
X175609285Y-42259761D01*
X175514047Y-42307380D01*
X175323571Y-42307380D01*
X176133095Y-41402619D02*
X176180714Y-41355000D01*
X176275952Y-41307380D01*
X176514047Y-41307380D01*
X176609285Y-41355000D01*
X176656904Y-41402619D01*
X176704523Y-41497857D01*
X176704523Y-41593095D01*
X176656904Y-41735952D01*
X176085476Y-42307380D01*
X176704523Y-42307380D01*
X221432380Y-48363095D02*
X220432380Y-48363095D01*
X221432380Y-47791666D02*
X220860952Y-48220238D01*
X220432380Y-47791666D02*
X221003809Y-48363095D01*
X221432380Y-46839285D02*
X221432380Y-47410714D01*
X221432380Y-47125000D02*
X220432380Y-47125000D01*
X220575238Y-47220238D01*
X220670476Y-47315476D01*
X220718095Y-47410714D01*
X232711666Y-31202380D02*
X232711666Y-31916666D01*
X232664047Y-32059523D01*
X232568809Y-32154761D01*
X232425952Y-32202380D01*
X232330714Y-32202380D01*
X233330714Y-31630952D02*
X233235476Y-31583333D01*
X233187857Y-31535714D01*
X233140238Y-31440476D01*
X233140238Y-31392857D01*
X233187857Y-31297619D01*
X233235476Y-31250000D01*
X233330714Y-31202380D01*
X233521190Y-31202380D01*
X233616428Y-31250000D01*
X233664047Y-31297619D01*
X233711666Y-31392857D01*
X233711666Y-31440476D01*
X233664047Y-31535714D01*
X233616428Y-31583333D01*
X233521190Y-31630952D01*
X233330714Y-31630952D01*
X233235476Y-31678571D01*
X233187857Y-31726190D01*
X233140238Y-31821428D01*
X233140238Y-32011904D01*
X233187857Y-32107142D01*
X233235476Y-32154761D01*
X233330714Y-32202380D01*
X233521190Y-32202380D01*
X233616428Y-32154761D01*
X233664047Y-32107142D01*
X233711666Y-32011904D01*
X233711666Y-31821428D01*
X233664047Y-31726190D01*
X233616428Y-31678571D01*
X233521190Y-31630952D01*
X212391666Y-51522380D02*
X212391666Y-52236666D01*
X212344047Y-52379523D01*
X212248809Y-52474761D01*
X212105952Y-52522380D01*
X212010714Y-52522380D01*
X212772619Y-51522380D02*
X213439285Y-51522380D01*
X213010714Y-52522380D01*
X164131666Y-62952380D02*
X164131666Y-63666666D01*
X164084047Y-63809523D01*
X163988809Y-63904761D01*
X163845952Y-63952380D01*
X163750714Y-63952380D01*
X165084047Y-62952380D02*
X164607857Y-62952380D01*
X164560238Y-63428571D01*
X164607857Y-63380952D01*
X164703095Y-63333333D01*
X164941190Y-63333333D01*
X165036428Y-63380952D01*
X165084047Y-63428571D01*
X165131666Y-63523809D01*
X165131666Y-63761904D01*
X165084047Y-63857142D01*
X165036428Y-63904761D01*
X164941190Y-63952380D01*
X164703095Y-63952380D01*
X164607857Y-63904761D01*
X164560238Y-63857142D01*
X212391666Y-31202380D02*
X212391666Y-31916666D01*
X212344047Y-32059523D01*
X212248809Y-32154761D01*
X212105952Y-32202380D01*
X212010714Y-32202380D01*
X212820238Y-31297619D02*
X212867857Y-31250000D01*
X212963095Y-31202380D01*
X213201190Y-31202380D01*
X213296428Y-31250000D01*
X213344047Y-31297619D01*
X213391666Y-31392857D01*
X213391666Y-31488095D01*
X213344047Y-31630952D01*
X212772619Y-32202380D01*
X213391666Y-32202380D01*
X186991666Y-31202380D02*
X186991666Y-31916666D01*
X186944047Y-32059523D01*
X186848809Y-32154761D01*
X186705952Y-32202380D01*
X186610714Y-32202380D01*
X187991666Y-32202380D02*
X187420238Y-32202380D01*
X187705952Y-32202380D02*
X187705952Y-31202380D01*
X187610714Y-31345238D01*
X187515476Y-31440476D01*
X187420238Y-31488095D01*
X188412380Y-42648095D02*
X187412380Y-42648095D01*
X187412380Y-42410000D01*
X187460000Y-42267142D01*
X187555238Y-42171904D01*
X187650476Y-42124285D01*
X187840952Y-42076666D01*
X187983809Y-42076666D01*
X188174285Y-42124285D01*
X188269523Y-42171904D01*
X188364761Y-42267142D01*
X188412380Y-42410000D01*
X188412380Y-42648095D01*
X187745714Y-41219523D02*
X188412380Y-41219523D01*
X187364761Y-41457619D02*
X188079047Y-41695714D01*
X188079047Y-41076666D01*
X184046904Y-55697380D02*
X184046904Y-54697380D01*
X184285000Y-54697380D01*
X184427857Y-54745000D01*
X184523095Y-54840238D01*
X184570714Y-54935476D01*
X184618333Y-55125952D01*
X184618333Y-55268809D01*
X184570714Y-55459285D01*
X184523095Y-55554523D01*
X184427857Y-55649761D01*
X184285000Y-55697380D01*
X184046904Y-55697380D01*
X184951666Y-54697380D02*
X185570714Y-54697380D01*
X185237380Y-55078333D01*
X185380238Y-55078333D01*
X185475476Y-55125952D01*
X185523095Y-55173571D01*
X185570714Y-55268809D01*
X185570714Y-55506904D01*
X185523095Y-55602142D01*
X185475476Y-55649761D01*
X185380238Y-55697380D01*
X185094523Y-55697380D01*
X184999285Y-55649761D01*
X184951666Y-55602142D01*
X184046904Y-52522380D02*
X184046904Y-51522380D01*
X184285000Y-51522380D01*
X184427857Y-51570000D01*
X184523095Y-51665238D01*
X184570714Y-51760476D01*
X184618333Y-51950952D01*
X184618333Y-52093809D01*
X184570714Y-52284285D01*
X184523095Y-52379523D01*
X184427857Y-52474761D01*
X184285000Y-52522380D01*
X184046904Y-52522380D01*
X184999285Y-51617619D02*
X185046904Y-51570000D01*
X185142142Y-51522380D01*
X185380238Y-51522380D01*
X185475476Y-51570000D01*
X185523095Y-51617619D01*
X185570714Y-51712857D01*
X185570714Y-51808095D01*
X185523095Y-51950952D01*
X184951666Y-52522380D01*
X185570714Y-52522380D01*
X168108333Y-42902142D02*
X168060714Y-42949761D01*
X167917857Y-42997380D01*
X167822619Y-42997380D01*
X167679761Y-42949761D01*
X167584523Y-42854523D01*
X167536904Y-42759285D01*
X167489285Y-42568809D01*
X167489285Y-42425952D01*
X167536904Y-42235476D01*
X167584523Y-42140238D01*
X167679761Y-42045000D01*
X167822619Y-41997380D01*
X167917857Y-41997380D01*
X168060714Y-42045000D01*
X168108333Y-42092619D01*
X168441666Y-41997380D02*
X169060714Y-41997380D01*
X168727380Y-42378333D01*
X168870238Y-42378333D01*
X168965476Y-42425952D01*
X169013095Y-42473571D01*
X169060714Y-42568809D01*
X169060714Y-42806904D01*
X169013095Y-42902142D01*
X168965476Y-42949761D01*
X168870238Y-42997380D01*
X168584523Y-42997380D01*
X168489285Y-42949761D01*
X168441666Y-42902142D01*
X187793333Y-50362142D02*
X187745714Y-50409761D01*
X187602857Y-50457380D01*
X187507619Y-50457380D01*
X187364761Y-50409761D01*
X187269523Y-50314523D01*
X187221904Y-50219285D01*
X187174285Y-50028809D01*
X187174285Y-49885952D01*
X187221904Y-49695476D01*
X187269523Y-49600238D01*
X187364761Y-49505000D01*
X187507619Y-49457380D01*
X187602857Y-49457380D01*
X187745714Y-49505000D01*
X187793333Y-49552619D01*
X188174285Y-49552619D02*
X188221904Y-49505000D01*
X188317142Y-49457380D01*
X188555238Y-49457380D01*
X188650476Y-49505000D01*
X188698095Y-49552619D01*
X188745714Y-49647857D01*
X188745714Y-49743095D01*
X188698095Y-49885952D01*
X188126666Y-50457380D01*
X188745714Y-50457380D01*
X167473333Y-33377142D02*
X167425714Y-33424761D01*
X167282857Y-33472380D01*
X167187619Y-33472380D01*
X167044761Y-33424761D01*
X166949523Y-33329523D01*
X166901904Y-33234285D01*
X166854285Y-33043809D01*
X166854285Y-32900952D01*
X166901904Y-32710476D01*
X166949523Y-32615238D01*
X167044761Y-32520000D01*
X167187619Y-32472380D01*
X167282857Y-32472380D01*
X167425714Y-32520000D01*
X167473333Y-32567619D01*
X168425714Y-33472380D02*
X167854285Y-33472380D01*
X168140000Y-33472380D02*
X168140000Y-32472380D01*
X168044761Y-32615238D01*
X167949523Y-32710476D01*
X167854285Y-32758095D01*
M02*
