G04 #@! TF.GenerationSoftware,KiCad,Pcbnew,(5.1.5)-3*
G04 #@! TF.CreationDate,2020-09-19T18:20:04+02:00*
G04 #@! TF.ProjectId,PedalCtrl,50656461-6c43-4747-926c-2e6b69636164,v0.0*
G04 #@! TF.SameCoordinates,Original*
G04 #@! TF.FileFunction,Copper,L2,Bot*
G04 #@! TF.FilePolarity,Positive*
%FSLAX46Y46*%
G04 Gerber Fmt 4.6, Leading zero omitted, Abs format (unit mm)*
G04 Created by KiCad (PCBNEW (5.1.5)-3) date 2020-09-19 18:20:04*
%MOMM*%
%LPD*%
G04 APERTURE LIST*
%ADD10C,0.800000*%
%ADD11C,6.400000*%
%ADD12O,1.700000X1.700000*%
%ADD13R,1.700000X1.700000*%
%ADD14C,3.000000*%
%ADD15R,3.000000X3.000000*%
%ADD16C,2.600000*%
%ADD17R,2.600000X2.600000*%
%ADD18C,0.250000*%
%ADD19C,1.000000*%
%ADD20C,1.500000*%
%ADD21C,0.254000*%
G04 APERTURE END LIST*
D10*
X230297056Y-56722944D03*
X228600000Y-56020000D03*
X226902944Y-56722944D03*
X226200000Y-58420000D03*
X226902944Y-60117056D03*
X228600000Y-60820000D03*
X230297056Y-60117056D03*
X231000000Y-58420000D03*
D11*
X228600000Y-58420000D03*
D10*
X169337056Y-23702944D03*
X167640000Y-23000000D03*
X165942944Y-23702944D03*
X165240000Y-25400000D03*
X165942944Y-27097056D03*
X167640000Y-27800000D03*
X169337056Y-27097056D03*
X170040000Y-25400000D03*
D11*
X167640000Y-25400000D03*
D12*
X182880000Y-60960000D03*
D13*
X180340000Y-60960000D03*
D12*
X175260000Y-60960000D03*
D13*
X172720000Y-60960000D03*
D12*
X187960000Y-60960000D03*
X187960000Y-58420000D03*
D13*
X187960000Y-55880000D03*
D14*
X218040000Y-38100000D03*
X213040000Y-45600000D03*
X208040000Y-38100000D03*
X208040000Y-45600000D03*
X218040000Y-45600000D03*
X213040000Y-38100000D03*
X193040000Y-45600000D03*
D15*
X193040000Y-38100000D03*
D16*
X230980000Y-25400000D03*
X225980000Y-25400000D03*
D17*
X220980000Y-25400000D03*
D16*
X200660000Y-58420000D03*
X205660000Y-58420000D03*
D17*
X210660000Y-58420000D03*
D12*
X164465000Y-60960000D03*
X164465000Y-58420000D03*
X164465000Y-55880000D03*
X164465000Y-53340000D03*
X164465000Y-50800000D03*
D13*
X164465000Y-48260000D03*
D16*
X210660000Y-25400000D03*
X205660000Y-25400000D03*
D17*
X200660000Y-25400000D03*
D16*
X185340000Y-25400000D03*
D17*
X180340000Y-25400000D03*
D10*
X172720000Y-53340000D03*
X167005000Y-48895000D03*
X184785000Y-53340000D03*
X186055000Y-53340000D03*
X169545000Y-48895000D03*
X186055000Y-50800000D03*
X180975000Y-55245000D03*
X170180000Y-53340000D03*
X173355000Y-47625000D03*
X168275000Y-47625000D03*
X175895000Y-46355000D03*
D18*
X213360000Y-59690000D02*
X213360000Y-53975000D01*
X165667081Y-53340000D02*
X166937081Y-52070000D01*
X164465000Y-53340000D02*
X165667081Y-53340000D01*
X166937081Y-52070000D02*
X171450000Y-52070000D01*
X171450000Y-52070000D02*
X172720000Y-53340000D01*
X164465000Y-53340000D02*
X167005000Y-50800000D01*
X167005000Y-50800000D02*
X167005000Y-48895000D01*
X186757919Y-60960000D02*
X184785000Y-58987081D01*
X187960000Y-60960000D02*
X186757919Y-60960000D01*
X184785000Y-58987081D02*
X184785000Y-53340000D01*
X186055000Y-56515000D02*
X187960000Y-58420000D01*
X186055000Y-53340000D02*
X186055000Y-56515000D01*
X184150000Y-48895000D02*
X186055000Y-50800000D01*
X169545000Y-48895000D02*
X184150000Y-48895000D01*
X180975000Y-55245000D02*
X172085000Y-55245000D01*
X172085000Y-55245000D02*
X170180000Y-53340000D01*
D19*
X180340000Y-27700000D02*
X180340000Y-25400000D01*
X180340000Y-27900000D02*
X180340000Y-27700000D01*
X190540000Y-38100000D02*
X180340000Y-27900000D01*
X193040000Y-38100000D02*
X190540000Y-38100000D01*
D18*
X173355000Y-47625000D02*
X168275000Y-47625000D01*
X173355000Y-47625000D02*
X174625000Y-47625000D01*
X174625000Y-47625000D02*
X175895000Y-46355000D01*
D20*
X211959999Y-26699999D02*
X211959999Y-30349999D01*
X210660000Y-25400000D02*
X211959999Y-26699999D01*
X211959999Y-30349999D02*
X213360000Y-31750000D01*
X230980000Y-30005000D02*
X230980000Y-25400000D01*
X229235000Y-31750000D02*
X230980000Y-30005000D01*
X224790000Y-31750000D02*
X224790000Y-47090000D01*
X213360000Y-31750000D02*
X224790000Y-31750000D01*
X224790000Y-31750000D02*
X229235000Y-31750000D01*
X208688477Y-21590000D02*
X171450000Y-21590000D01*
X210660000Y-23561523D02*
X208688477Y-21590000D01*
X171450000Y-21590000D02*
X167640000Y-25400000D01*
X210660000Y-25400000D02*
X210660000Y-23561523D01*
X226060000Y-50800000D02*
X228600000Y-53340000D01*
X228600000Y-53340000D02*
X228600000Y-58420000D01*
X222885000Y-50800000D02*
X226060000Y-50800000D01*
X213744706Y-50800000D02*
X222885000Y-50800000D01*
X210660000Y-53884706D02*
X213744706Y-50800000D01*
X210660000Y-58420000D02*
X210660000Y-53884706D01*
X226060000Y-50800000D02*
X225425000Y-50800000D01*
X224790000Y-50165000D02*
X224790000Y-47625000D01*
X225425000Y-50800000D02*
X224790000Y-50165000D01*
X224790000Y-47090000D02*
X224790000Y-47625000D01*
X224790000Y-47625000D02*
X224790000Y-48895000D01*
D21*
G36*
X192913000Y-20205000D02*
G01*
X171518029Y-20205000D01*
X171450000Y-20198300D01*
X171381971Y-20205000D01*
X171381963Y-20205000D01*
X171178493Y-20225040D01*
X170917419Y-20304236D01*
X170676812Y-20432843D01*
X170518766Y-20562548D01*
X170518764Y-20562550D01*
X170465919Y-20605919D01*
X170422550Y-20658764D01*
X169190182Y-21891132D01*
X168758628Y-21712377D01*
X168017715Y-21565000D01*
X167262285Y-21565000D01*
X166521372Y-21712377D01*
X165823446Y-22001467D01*
X165195330Y-22421161D01*
X164661161Y-22955330D01*
X164241467Y-23583446D01*
X163952377Y-24281372D01*
X163805000Y-25022285D01*
X163805000Y-25777715D01*
X163952377Y-26518628D01*
X164241467Y-27216554D01*
X164661161Y-27844670D01*
X165195330Y-28378839D01*
X165823446Y-28798533D01*
X166521372Y-29087623D01*
X167262285Y-29235000D01*
X168017715Y-29235000D01*
X168758628Y-29087623D01*
X169456554Y-28798533D01*
X170084670Y-28378839D01*
X170618839Y-27844670D01*
X171038533Y-27216554D01*
X171327623Y-26518628D01*
X171475000Y-25777715D01*
X171475000Y-25022285D01*
X171327623Y-24281372D01*
X171148868Y-23849818D01*
X172023686Y-22975000D01*
X192913000Y-22975000D01*
X192913000Y-35433000D01*
X190500000Y-35433000D01*
X190475224Y-35435440D01*
X190451399Y-35442667D01*
X190429443Y-35454403D01*
X190410197Y-35470197D01*
X190394403Y-35489443D01*
X190382667Y-35511399D01*
X190375440Y-35535224D01*
X190373000Y-35560000D01*
X190373000Y-36327868D01*
X181475000Y-27429869D01*
X181475000Y-27338072D01*
X181640000Y-27338072D01*
X181764482Y-27325812D01*
X181884180Y-27289502D01*
X181994494Y-27230537D01*
X182091185Y-27151185D01*
X182170537Y-27054494D01*
X182229502Y-26944180D01*
X182265812Y-26824482D01*
X182273224Y-26749224D01*
X184170381Y-26749224D01*
X184302317Y-27044312D01*
X184643045Y-27215159D01*
X185010557Y-27316250D01*
X185390729Y-27343701D01*
X185768951Y-27296457D01*
X186130690Y-27176333D01*
X186377683Y-27044312D01*
X186509619Y-26749224D01*
X185340000Y-25579605D01*
X184170381Y-26749224D01*
X182273224Y-26749224D01*
X182278072Y-26700000D01*
X182278072Y-25450729D01*
X183396299Y-25450729D01*
X183443543Y-25828951D01*
X183563667Y-26190690D01*
X183695688Y-26437683D01*
X183990776Y-26569619D01*
X185160395Y-25400000D01*
X185519605Y-25400000D01*
X186689224Y-26569619D01*
X186984312Y-26437683D01*
X187155159Y-26096955D01*
X187256250Y-25729443D01*
X187283701Y-25349271D01*
X187236457Y-24971049D01*
X187116333Y-24609310D01*
X186984312Y-24362317D01*
X186689224Y-24230381D01*
X185519605Y-25400000D01*
X185160395Y-25400000D01*
X183990776Y-24230381D01*
X183695688Y-24362317D01*
X183524841Y-24703045D01*
X183423750Y-25070557D01*
X183396299Y-25450729D01*
X182278072Y-25450729D01*
X182278072Y-24100000D01*
X182273225Y-24050776D01*
X184170381Y-24050776D01*
X185340000Y-25220395D01*
X186509619Y-24050776D01*
X186377683Y-23755688D01*
X186036955Y-23584841D01*
X185669443Y-23483750D01*
X185289271Y-23456299D01*
X184911049Y-23503543D01*
X184549310Y-23623667D01*
X184302317Y-23755688D01*
X184170381Y-24050776D01*
X182273225Y-24050776D01*
X182265812Y-23975518D01*
X182229502Y-23855820D01*
X182170537Y-23745506D01*
X182091185Y-23648815D01*
X181994494Y-23569463D01*
X181884180Y-23510498D01*
X181764482Y-23474188D01*
X181640000Y-23461928D01*
X179040000Y-23461928D01*
X178915518Y-23474188D01*
X178795820Y-23510498D01*
X178685506Y-23569463D01*
X178588815Y-23648815D01*
X178509463Y-23745506D01*
X178450498Y-23855820D01*
X178414188Y-23975518D01*
X178401928Y-24100000D01*
X178401928Y-26700000D01*
X178414188Y-26824482D01*
X178450498Y-26944180D01*
X178509463Y-27054494D01*
X178588815Y-27151185D01*
X178685506Y-27230537D01*
X178795820Y-27289502D01*
X178915518Y-27325812D01*
X179040000Y-27338072D01*
X179205000Y-27338072D01*
X179205000Y-27844249D01*
X179199509Y-27900000D01*
X179205000Y-27955751D01*
X179221423Y-28122498D01*
X179286324Y-28336446D01*
X179391716Y-28533623D01*
X179533551Y-28706449D01*
X179576865Y-28741996D01*
X189698009Y-38863141D01*
X189733551Y-38906449D01*
X189906377Y-39048284D01*
X190103553Y-39153676D01*
X190317501Y-39218577D01*
X190373000Y-39224043D01*
X190373000Y-48260000D01*
X190375440Y-48284776D01*
X190382667Y-48308601D01*
X190394403Y-48330557D01*
X190410197Y-48349803D01*
X190429443Y-48365597D01*
X190451399Y-48377333D01*
X190475224Y-48384560D01*
X190500000Y-48387000D01*
X192913000Y-48387000D01*
X192913000Y-64110000D01*
X161950000Y-64110000D01*
X161950000Y-55733740D01*
X162980000Y-55733740D01*
X162980000Y-56026260D01*
X163037068Y-56313158D01*
X163149010Y-56583411D01*
X163311525Y-56826632D01*
X163518368Y-57033475D01*
X163692760Y-57150000D01*
X163518368Y-57266525D01*
X163311525Y-57473368D01*
X163149010Y-57716589D01*
X163037068Y-57986842D01*
X162980000Y-58273740D01*
X162980000Y-58566260D01*
X163037068Y-58853158D01*
X163149010Y-59123411D01*
X163311525Y-59366632D01*
X163518368Y-59573475D01*
X163692760Y-59690000D01*
X163518368Y-59806525D01*
X163311525Y-60013368D01*
X163149010Y-60256589D01*
X163037068Y-60526842D01*
X162980000Y-60813740D01*
X162980000Y-61106260D01*
X163037068Y-61393158D01*
X163149010Y-61663411D01*
X163311525Y-61906632D01*
X163518368Y-62113475D01*
X163761589Y-62275990D01*
X164031842Y-62387932D01*
X164318740Y-62445000D01*
X164611260Y-62445000D01*
X164898158Y-62387932D01*
X165168411Y-62275990D01*
X165411632Y-62113475D01*
X165618475Y-61906632D01*
X165780990Y-61663411D01*
X165892932Y-61393158D01*
X165950000Y-61106260D01*
X165950000Y-60813740D01*
X165892932Y-60526842D01*
X165780990Y-60256589D01*
X165683043Y-60110000D01*
X171231928Y-60110000D01*
X171231928Y-61810000D01*
X171244188Y-61934482D01*
X171280498Y-62054180D01*
X171339463Y-62164494D01*
X171418815Y-62261185D01*
X171515506Y-62340537D01*
X171625820Y-62399502D01*
X171745518Y-62435812D01*
X171870000Y-62448072D01*
X173570000Y-62448072D01*
X173694482Y-62435812D01*
X173814180Y-62399502D01*
X173924494Y-62340537D01*
X174021185Y-62261185D01*
X174100537Y-62164494D01*
X174159502Y-62054180D01*
X174181513Y-61981620D01*
X174313368Y-62113475D01*
X174556589Y-62275990D01*
X174826842Y-62387932D01*
X175113740Y-62445000D01*
X175406260Y-62445000D01*
X175693158Y-62387932D01*
X175963411Y-62275990D01*
X176206632Y-62113475D01*
X176413475Y-61906632D01*
X176575990Y-61663411D01*
X176687932Y-61393158D01*
X176745000Y-61106260D01*
X176745000Y-60813740D01*
X176687932Y-60526842D01*
X176575990Y-60256589D01*
X176478043Y-60110000D01*
X178851928Y-60110000D01*
X178851928Y-61810000D01*
X178864188Y-61934482D01*
X178900498Y-62054180D01*
X178959463Y-62164494D01*
X179038815Y-62261185D01*
X179135506Y-62340537D01*
X179245820Y-62399502D01*
X179365518Y-62435812D01*
X179490000Y-62448072D01*
X181190000Y-62448072D01*
X181314482Y-62435812D01*
X181434180Y-62399502D01*
X181544494Y-62340537D01*
X181641185Y-62261185D01*
X181720537Y-62164494D01*
X181779502Y-62054180D01*
X181801513Y-61981620D01*
X181933368Y-62113475D01*
X182176589Y-62275990D01*
X182446842Y-62387932D01*
X182733740Y-62445000D01*
X183026260Y-62445000D01*
X183313158Y-62387932D01*
X183583411Y-62275990D01*
X183826632Y-62113475D01*
X184033475Y-61906632D01*
X184195990Y-61663411D01*
X184307932Y-61393158D01*
X184365000Y-61106260D01*
X184365000Y-60813740D01*
X184307932Y-60526842D01*
X184195990Y-60256589D01*
X184033475Y-60013368D01*
X183826632Y-59806525D01*
X183583411Y-59644010D01*
X183313158Y-59532068D01*
X183026260Y-59475000D01*
X182733740Y-59475000D01*
X182446842Y-59532068D01*
X182176589Y-59644010D01*
X181933368Y-59806525D01*
X181801513Y-59938380D01*
X181779502Y-59865820D01*
X181720537Y-59755506D01*
X181641185Y-59658815D01*
X181544494Y-59579463D01*
X181434180Y-59520498D01*
X181314482Y-59484188D01*
X181190000Y-59471928D01*
X179490000Y-59471928D01*
X179365518Y-59484188D01*
X179245820Y-59520498D01*
X179135506Y-59579463D01*
X179038815Y-59658815D01*
X178959463Y-59755506D01*
X178900498Y-59865820D01*
X178864188Y-59985518D01*
X178851928Y-60110000D01*
X176478043Y-60110000D01*
X176413475Y-60013368D01*
X176206632Y-59806525D01*
X175963411Y-59644010D01*
X175693158Y-59532068D01*
X175406260Y-59475000D01*
X175113740Y-59475000D01*
X174826842Y-59532068D01*
X174556589Y-59644010D01*
X174313368Y-59806525D01*
X174181513Y-59938380D01*
X174159502Y-59865820D01*
X174100537Y-59755506D01*
X174021185Y-59658815D01*
X173924494Y-59579463D01*
X173814180Y-59520498D01*
X173694482Y-59484188D01*
X173570000Y-59471928D01*
X171870000Y-59471928D01*
X171745518Y-59484188D01*
X171625820Y-59520498D01*
X171515506Y-59579463D01*
X171418815Y-59658815D01*
X171339463Y-59755506D01*
X171280498Y-59865820D01*
X171244188Y-59985518D01*
X171231928Y-60110000D01*
X165683043Y-60110000D01*
X165618475Y-60013368D01*
X165411632Y-59806525D01*
X165237240Y-59690000D01*
X165411632Y-59573475D01*
X165618475Y-59366632D01*
X165780990Y-59123411D01*
X165892932Y-58853158D01*
X165950000Y-58566260D01*
X165950000Y-58273740D01*
X165892932Y-57986842D01*
X165780990Y-57716589D01*
X165618475Y-57473368D01*
X165411632Y-57266525D01*
X165237240Y-57150000D01*
X165411632Y-57033475D01*
X165618475Y-56826632D01*
X165780990Y-56583411D01*
X165892932Y-56313158D01*
X165950000Y-56026260D01*
X165950000Y-55733740D01*
X165892932Y-55446842D01*
X165780990Y-55176589D01*
X165618475Y-54933368D01*
X165411632Y-54726525D01*
X165229466Y-54604805D01*
X165346355Y-54535178D01*
X165562588Y-54340269D01*
X165736641Y-54106920D01*
X165861825Y-53844099D01*
X165906476Y-53696890D01*
X165785155Y-53467000D01*
X164592000Y-53467000D01*
X164592000Y-53487000D01*
X164338000Y-53487000D01*
X164338000Y-53467000D01*
X163144845Y-53467000D01*
X163023524Y-53696890D01*
X163068175Y-53844099D01*
X163193359Y-54106920D01*
X163367412Y-54340269D01*
X163583645Y-54535178D01*
X163700534Y-54604805D01*
X163518368Y-54726525D01*
X163311525Y-54933368D01*
X163149010Y-55176589D01*
X163037068Y-55446842D01*
X162980000Y-55733740D01*
X161950000Y-55733740D01*
X161950000Y-53238061D01*
X169145000Y-53238061D01*
X169145000Y-53441939D01*
X169184774Y-53641898D01*
X169262795Y-53830256D01*
X169376063Y-53999774D01*
X169520226Y-54143937D01*
X169689744Y-54257205D01*
X169878102Y-54335226D01*
X170078061Y-54375000D01*
X170140199Y-54375000D01*
X171521201Y-55756003D01*
X171544999Y-55785001D01*
X171660724Y-55879974D01*
X171792753Y-55950546D01*
X171936014Y-55994003D01*
X172047667Y-56005000D01*
X172047677Y-56005000D01*
X172085000Y-56008676D01*
X172122323Y-56005000D01*
X180271289Y-56005000D01*
X180315226Y-56048937D01*
X180484744Y-56162205D01*
X180673102Y-56240226D01*
X180873061Y-56280000D01*
X181076939Y-56280000D01*
X181276898Y-56240226D01*
X181465256Y-56162205D01*
X181634774Y-56048937D01*
X181778937Y-55904774D01*
X181892205Y-55735256D01*
X181970226Y-55546898D01*
X182010000Y-55346939D01*
X182010000Y-55143061D01*
X181970226Y-54943102D01*
X181892205Y-54754744D01*
X181778937Y-54585226D01*
X181634774Y-54441063D01*
X181465256Y-54327795D01*
X181276898Y-54249774D01*
X181076939Y-54210000D01*
X180873061Y-54210000D01*
X180673102Y-54249774D01*
X180484744Y-54327795D01*
X180315226Y-54441063D01*
X180271289Y-54485000D01*
X172399802Y-54485000D01*
X171215000Y-53300199D01*
X171215000Y-53238061D01*
X183750000Y-53238061D01*
X183750000Y-53441939D01*
X183789774Y-53641898D01*
X183867795Y-53830256D01*
X183981063Y-53999774D01*
X184025001Y-54043712D01*
X184025000Y-58949758D01*
X184021324Y-58987081D01*
X184025000Y-59024403D01*
X184025000Y-59024413D01*
X184035997Y-59136066D01*
X184079454Y-59279327D01*
X184150026Y-59411357D01*
X184189871Y-59459907D01*
X184244999Y-59527082D01*
X184274003Y-59550885D01*
X186194120Y-61471003D01*
X186217918Y-61500001D01*
X186333643Y-61594974D01*
X186465672Y-61665546D01*
X186608933Y-61709003D01*
X186679091Y-61715913D01*
X186806525Y-61906632D01*
X187013368Y-62113475D01*
X187256589Y-62275990D01*
X187526842Y-62387932D01*
X187813740Y-62445000D01*
X188106260Y-62445000D01*
X188393158Y-62387932D01*
X188663411Y-62275990D01*
X188906632Y-62113475D01*
X189113475Y-61906632D01*
X189275990Y-61663411D01*
X189387932Y-61393158D01*
X189445000Y-61106260D01*
X189445000Y-60813740D01*
X189387932Y-60526842D01*
X189275990Y-60256589D01*
X189113475Y-60013368D01*
X188906632Y-59806525D01*
X188732240Y-59690000D01*
X188906632Y-59573475D01*
X189113475Y-59366632D01*
X189275990Y-59123411D01*
X189387932Y-58853158D01*
X189445000Y-58566260D01*
X189445000Y-58273740D01*
X189387932Y-57986842D01*
X189275990Y-57716589D01*
X189113475Y-57473368D01*
X188981620Y-57341513D01*
X189054180Y-57319502D01*
X189164494Y-57260537D01*
X189261185Y-57181185D01*
X189340537Y-57084494D01*
X189399502Y-56974180D01*
X189435812Y-56854482D01*
X189448072Y-56730000D01*
X189445000Y-56165750D01*
X189286250Y-56007000D01*
X188087000Y-56007000D01*
X188087000Y-56027000D01*
X187833000Y-56027000D01*
X187833000Y-56007000D01*
X187813000Y-56007000D01*
X187813000Y-55753000D01*
X187833000Y-55753000D01*
X187833000Y-54553750D01*
X188087000Y-54553750D01*
X188087000Y-55753000D01*
X189286250Y-55753000D01*
X189445000Y-55594250D01*
X189448072Y-55030000D01*
X189435812Y-54905518D01*
X189399502Y-54785820D01*
X189340537Y-54675506D01*
X189261185Y-54578815D01*
X189164494Y-54499463D01*
X189054180Y-54440498D01*
X188934482Y-54404188D01*
X188810000Y-54391928D01*
X188245750Y-54395000D01*
X188087000Y-54553750D01*
X187833000Y-54553750D01*
X187674250Y-54395000D01*
X187110000Y-54391928D01*
X186985518Y-54404188D01*
X186865820Y-54440498D01*
X186815000Y-54467662D01*
X186815000Y-54043711D01*
X186858937Y-53999774D01*
X186972205Y-53830256D01*
X187050226Y-53641898D01*
X187090000Y-53441939D01*
X187090000Y-53238061D01*
X187050226Y-53038102D01*
X186972205Y-52849744D01*
X186858937Y-52680226D01*
X186714774Y-52536063D01*
X186545256Y-52422795D01*
X186356898Y-52344774D01*
X186156939Y-52305000D01*
X185953061Y-52305000D01*
X185753102Y-52344774D01*
X185564744Y-52422795D01*
X185420000Y-52519510D01*
X185275256Y-52422795D01*
X185086898Y-52344774D01*
X184886939Y-52305000D01*
X184683061Y-52305000D01*
X184483102Y-52344774D01*
X184294744Y-52422795D01*
X184125226Y-52536063D01*
X183981063Y-52680226D01*
X183867795Y-52849744D01*
X183789774Y-53038102D01*
X183750000Y-53238061D01*
X171215000Y-53238061D01*
X171175226Y-53038102D01*
X171097205Y-52849744D01*
X170983937Y-52680226D01*
X170839774Y-52536063D01*
X170670256Y-52422795D01*
X170481898Y-52344774D01*
X170281939Y-52305000D01*
X170078061Y-52305000D01*
X169878102Y-52344774D01*
X169689744Y-52422795D01*
X169520226Y-52536063D01*
X169376063Y-52680226D01*
X169262795Y-52849744D01*
X169184774Y-53038102D01*
X169145000Y-53238061D01*
X161950000Y-53238061D01*
X161950000Y-47410000D01*
X162976928Y-47410000D01*
X162976928Y-49110000D01*
X162989188Y-49234482D01*
X163025498Y-49354180D01*
X163084463Y-49464494D01*
X163163815Y-49561185D01*
X163260506Y-49640537D01*
X163370820Y-49699502D01*
X163443380Y-49721513D01*
X163311525Y-49853368D01*
X163149010Y-50096589D01*
X163037068Y-50366842D01*
X162980000Y-50653740D01*
X162980000Y-50946260D01*
X163037068Y-51233158D01*
X163149010Y-51503411D01*
X163311525Y-51746632D01*
X163518368Y-51953475D01*
X163700534Y-52075195D01*
X163583645Y-52144822D01*
X163367412Y-52339731D01*
X163193359Y-52573080D01*
X163068175Y-52835901D01*
X163023524Y-52983110D01*
X163144845Y-53213000D01*
X164338000Y-53213000D01*
X164338000Y-53193000D01*
X164592000Y-53193000D01*
X164592000Y-53213000D01*
X165785155Y-53213000D01*
X165906476Y-52983110D01*
X165861825Y-52835901D01*
X165736641Y-52573080D01*
X165562588Y-52339731D01*
X165346355Y-52144822D01*
X165229466Y-52075195D01*
X165411632Y-51953475D01*
X165618475Y-51746632D01*
X165780990Y-51503411D01*
X165892932Y-51233158D01*
X165950000Y-50946260D01*
X165950000Y-50653740D01*
X165892932Y-50366842D01*
X165780990Y-50096589D01*
X165618475Y-49853368D01*
X165486620Y-49721513D01*
X165559180Y-49699502D01*
X165669494Y-49640537D01*
X165766185Y-49561185D01*
X165845537Y-49464494D01*
X165904502Y-49354180D01*
X165940812Y-49234482D01*
X165953072Y-49110000D01*
X165953072Y-47523061D01*
X167240000Y-47523061D01*
X167240000Y-47726939D01*
X167279774Y-47926898D01*
X167357795Y-48115256D01*
X167471063Y-48284774D01*
X167615226Y-48428937D01*
X167784744Y-48542205D01*
X167973102Y-48620226D01*
X168173061Y-48660000D01*
X168376939Y-48660000D01*
X168543039Y-48626961D01*
X168510000Y-48793061D01*
X168510000Y-48996939D01*
X168549774Y-49196898D01*
X168627795Y-49385256D01*
X168741063Y-49554774D01*
X168885226Y-49698937D01*
X169054744Y-49812205D01*
X169243102Y-49890226D01*
X169443061Y-49930000D01*
X169646939Y-49930000D01*
X169846898Y-49890226D01*
X170035256Y-49812205D01*
X170204774Y-49698937D01*
X170248711Y-49655000D01*
X183835199Y-49655000D01*
X185020000Y-50839802D01*
X185020000Y-50901939D01*
X185059774Y-51101898D01*
X185137795Y-51290256D01*
X185251063Y-51459774D01*
X185395226Y-51603937D01*
X185564744Y-51717205D01*
X185753102Y-51795226D01*
X185953061Y-51835000D01*
X186156939Y-51835000D01*
X186356898Y-51795226D01*
X186545256Y-51717205D01*
X186714774Y-51603937D01*
X186858937Y-51459774D01*
X186972205Y-51290256D01*
X187050226Y-51101898D01*
X187090000Y-50901939D01*
X187090000Y-50698061D01*
X187050226Y-50498102D01*
X186972205Y-50309744D01*
X186858937Y-50140226D01*
X186714774Y-49996063D01*
X186545256Y-49882795D01*
X186356898Y-49804774D01*
X186156939Y-49765000D01*
X186094802Y-49765000D01*
X184713804Y-48384003D01*
X184690001Y-48354999D01*
X184574276Y-48260026D01*
X184442247Y-48189454D01*
X184298986Y-48145997D01*
X184187333Y-48135000D01*
X184187322Y-48135000D01*
X184150000Y-48131324D01*
X184112678Y-48135000D01*
X175189801Y-48135000D01*
X175934802Y-47390000D01*
X175996939Y-47390000D01*
X176196898Y-47350226D01*
X176385256Y-47272205D01*
X176554774Y-47158937D01*
X176698937Y-47014774D01*
X176812205Y-46845256D01*
X176890226Y-46656898D01*
X176930000Y-46456939D01*
X176930000Y-46253061D01*
X176890226Y-46053102D01*
X176812205Y-45864744D01*
X176698937Y-45695226D01*
X176554774Y-45551063D01*
X176385256Y-45437795D01*
X176196898Y-45359774D01*
X175996939Y-45320000D01*
X175793061Y-45320000D01*
X175593102Y-45359774D01*
X175404744Y-45437795D01*
X175235226Y-45551063D01*
X175091063Y-45695226D01*
X174977795Y-45864744D01*
X174899774Y-46053102D01*
X174860000Y-46253061D01*
X174860000Y-46315198D01*
X174310199Y-46865000D01*
X174058711Y-46865000D01*
X174014774Y-46821063D01*
X173845256Y-46707795D01*
X173656898Y-46629774D01*
X173456939Y-46590000D01*
X173253061Y-46590000D01*
X173053102Y-46629774D01*
X172864744Y-46707795D01*
X172695226Y-46821063D01*
X172651289Y-46865000D01*
X168978711Y-46865000D01*
X168934774Y-46821063D01*
X168765256Y-46707795D01*
X168576898Y-46629774D01*
X168376939Y-46590000D01*
X168173061Y-46590000D01*
X167973102Y-46629774D01*
X167784744Y-46707795D01*
X167615226Y-46821063D01*
X167471063Y-46965226D01*
X167357795Y-47134744D01*
X167279774Y-47323102D01*
X167240000Y-47523061D01*
X165953072Y-47523061D01*
X165953072Y-47410000D01*
X165940812Y-47285518D01*
X165904502Y-47165820D01*
X165845537Y-47055506D01*
X165766185Y-46958815D01*
X165669494Y-46879463D01*
X165559180Y-46820498D01*
X165439482Y-46784188D01*
X165315000Y-46771928D01*
X163615000Y-46771928D01*
X163490518Y-46784188D01*
X163370820Y-46820498D01*
X163260506Y-46879463D01*
X163163815Y-46958815D01*
X163084463Y-47055506D01*
X163025498Y-47165820D01*
X162989188Y-47285518D01*
X162976928Y-47410000D01*
X161950000Y-47410000D01*
X161950000Y-19710000D01*
X192913000Y-19710000D01*
X192913000Y-20205000D01*
G37*
X192913000Y-20205000D02*
X171518029Y-20205000D01*
X171450000Y-20198300D01*
X171381971Y-20205000D01*
X171381963Y-20205000D01*
X171178493Y-20225040D01*
X170917419Y-20304236D01*
X170676812Y-20432843D01*
X170518766Y-20562548D01*
X170518764Y-20562550D01*
X170465919Y-20605919D01*
X170422550Y-20658764D01*
X169190182Y-21891132D01*
X168758628Y-21712377D01*
X168017715Y-21565000D01*
X167262285Y-21565000D01*
X166521372Y-21712377D01*
X165823446Y-22001467D01*
X165195330Y-22421161D01*
X164661161Y-22955330D01*
X164241467Y-23583446D01*
X163952377Y-24281372D01*
X163805000Y-25022285D01*
X163805000Y-25777715D01*
X163952377Y-26518628D01*
X164241467Y-27216554D01*
X164661161Y-27844670D01*
X165195330Y-28378839D01*
X165823446Y-28798533D01*
X166521372Y-29087623D01*
X167262285Y-29235000D01*
X168017715Y-29235000D01*
X168758628Y-29087623D01*
X169456554Y-28798533D01*
X170084670Y-28378839D01*
X170618839Y-27844670D01*
X171038533Y-27216554D01*
X171327623Y-26518628D01*
X171475000Y-25777715D01*
X171475000Y-25022285D01*
X171327623Y-24281372D01*
X171148868Y-23849818D01*
X172023686Y-22975000D01*
X192913000Y-22975000D01*
X192913000Y-35433000D01*
X190500000Y-35433000D01*
X190475224Y-35435440D01*
X190451399Y-35442667D01*
X190429443Y-35454403D01*
X190410197Y-35470197D01*
X190394403Y-35489443D01*
X190382667Y-35511399D01*
X190375440Y-35535224D01*
X190373000Y-35560000D01*
X190373000Y-36327868D01*
X181475000Y-27429869D01*
X181475000Y-27338072D01*
X181640000Y-27338072D01*
X181764482Y-27325812D01*
X181884180Y-27289502D01*
X181994494Y-27230537D01*
X182091185Y-27151185D01*
X182170537Y-27054494D01*
X182229502Y-26944180D01*
X182265812Y-26824482D01*
X182273224Y-26749224D01*
X184170381Y-26749224D01*
X184302317Y-27044312D01*
X184643045Y-27215159D01*
X185010557Y-27316250D01*
X185390729Y-27343701D01*
X185768951Y-27296457D01*
X186130690Y-27176333D01*
X186377683Y-27044312D01*
X186509619Y-26749224D01*
X185340000Y-25579605D01*
X184170381Y-26749224D01*
X182273224Y-26749224D01*
X182278072Y-26700000D01*
X182278072Y-25450729D01*
X183396299Y-25450729D01*
X183443543Y-25828951D01*
X183563667Y-26190690D01*
X183695688Y-26437683D01*
X183990776Y-26569619D01*
X185160395Y-25400000D01*
X185519605Y-25400000D01*
X186689224Y-26569619D01*
X186984312Y-26437683D01*
X187155159Y-26096955D01*
X187256250Y-25729443D01*
X187283701Y-25349271D01*
X187236457Y-24971049D01*
X187116333Y-24609310D01*
X186984312Y-24362317D01*
X186689224Y-24230381D01*
X185519605Y-25400000D01*
X185160395Y-25400000D01*
X183990776Y-24230381D01*
X183695688Y-24362317D01*
X183524841Y-24703045D01*
X183423750Y-25070557D01*
X183396299Y-25450729D01*
X182278072Y-25450729D01*
X182278072Y-24100000D01*
X182273225Y-24050776D01*
X184170381Y-24050776D01*
X185340000Y-25220395D01*
X186509619Y-24050776D01*
X186377683Y-23755688D01*
X186036955Y-23584841D01*
X185669443Y-23483750D01*
X185289271Y-23456299D01*
X184911049Y-23503543D01*
X184549310Y-23623667D01*
X184302317Y-23755688D01*
X184170381Y-24050776D01*
X182273225Y-24050776D01*
X182265812Y-23975518D01*
X182229502Y-23855820D01*
X182170537Y-23745506D01*
X182091185Y-23648815D01*
X181994494Y-23569463D01*
X181884180Y-23510498D01*
X181764482Y-23474188D01*
X181640000Y-23461928D01*
X179040000Y-23461928D01*
X178915518Y-23474188D01*
X178795820Y-23510498D01*
X178685506Y-23569463D01*
X178588815Y-23648815D01*
X178509463Y-23745506D01*
X178450498Y-23855820D01*
X178414188Y-23975518D01*
X178401928Y-24100000D01*
X178401928Y-26700000D01*
X178414188Y-26824482D01*
X178450498Y-26944180D01*
X178509463Y-27054494D01*
X178588815Y-27151185D01*
X178685506Y-27230537D01*
X178795820Y-27289502D01*
X178915518Y-27325812D01*
X179040000Y-27338072D01*
X179205000Y-27338072D01*
X179205000Y-27844249D01*
X179199509Y-27900000D01*
X179205000Y-27955751D01*
X179221423Y-28122498D01*
X179286324Y-28336446D01*
X179391716Y-28533623D01*
X179533551Y-28706449D01*
X179576865Y-28741996D01*
X189698009Y-38863141D01*
X189733551Y-38906449D01*
X189906377Y-39048284D01*
X190103553Y-39153676D01*
X190317501Y-39218577D01*
X190373000Y-39224043D01*
X190373000Y-48260000D01*
X190375440Y-48284776D01*
X190382667Y-48308601D01*
X190394403Y-48330557D01*
X190410197Y-48349803D01*
X190429443Y-48365597D01*
X190451399Y-48377333D01*
X190475224Y-48384560D01*
X190500000Y-48387000D01*
X192913000Y-48387000D01*
X192913000Y-64110000D01*
X161950000Y-64110000D01*
X161950000Y-55733740D01*
X162980000Y-55733740D01*
X162980000Y-56026260D01*
X163037068Y-56313158D01*
X163149010Y-56583411D01*
X163311525Y-56826632D01*
X163518368Y-57033475D01*
X163692760Y-57150000D01*
X163518368Y-57266525D01*
X163311525Y-57473368D01*
X163149010Y-57716589D01*
X163037068Y-57986842D01*
X162980000Y-58273740D01*
X162980000Y-58566260D01*
X163037068Y-58853158D01*
X163149010Y-59123411D01*
X163311525Y-59366632D01*
X163518368Y-59573475D01*
X163692760Y-59690000D01*
X163518368Y-59806525D01*
X163311525Y-60013368D01*
X163149010Y-60256589D01*
X163037068Y-60526842D01*
X162980000Y-60813740D01*
X162980000Y-61106260D01*
X163037068Y-61393158D01*
X163149010Y-61663411D01*
X163311525Y-61906632D01*
X163518368Y-62113475D01*
X163761589Y-62275990D01*
X164031842Y-62387932D01*
X164318740Y-62445000D01*
X164611260Y-62445000D01*
X164898158Y-62387932D01*
X165168411Y-62275990D01*
X165411632Y-62113475D01*
X165618475Y-61906632D01*
X165780990Y-61663411D01*
X165892932Y-61393158D01*
X165950000Y-61106260D01*
X165950000Y-60813740D01*
X165892932Y-60526842D01*
X165780990Y-60256589D01*
X165683043Y-60110000D01*
X171231928Y-60110000D01*
X171231928Y-61810000D01*
X171244188Y-61934482D01*
X171280498Y-62054180D01*
X171339463Y-62164494D01*
X171418815Y-62261185D01*
X171515506Y-62340537D01*
X171625820Y-62399502D01*
X171745518Y-62435812D01*
X171870000Y-62448072D01*
X173570000Y-62448072D01*
X173694482Y-62435812D01*
X173814180Y-62399502D01*
X173924494Y-62340537D01*
X174021185Y-62261185D01*
X174100537Y-62164494D01*
X174159502Y-62054180D01*
X174181513Y-61981620D01*
X174313368Y-62113475D01*
X174556589Y-62275990D01*
X174826842Y-62387932D01*
X175113740Y-62445000D01*
X175406260Y-62445000D01*
X175693158Y-62387932D01*
X175963411Y-62275990D01*
X176206632Y-62113475D01*
X176413475Y-61906632D01*
X176575990Y-61663411D01*
X176687932Y-61393158D01*
X176745000Y-61106260D01*
X176745000Y-60813740D01*
X176687932Y-60526842D01*
X176575990Y-60256589D01*
X176478043Y-60110000D01*
X178851928Y-60110000D01*
X178851928Y-61810000D01*
X178864188Y-61934482D01*
X178900498Y-62054180D01*
X178959463Y-62164494D01*
X179038815Y-62261185D01*
X179135506Y-62340537D01*
X179245820Y-62399502D01*
X179365518Y-62435812D01*
X179490000Y-62448072D01*
X181190000Y-62448072D01*
X181314482Y-62435812D01*
X181434180Y-62399502D01*
X181544494Y-62340537D01*
X181641185Y-62261185D01*
X181720537Y-62164494D01*
X181779502Y-62054180D01*
X181801513Y-61981620D01*
X181933368Y-62113475D01*
X182176589Y-62275990D01*
X182446842Y-62387932D01*
X182733740Y-62445000D01*
X183026260Y-62445000D01*
X183313158Y-62387932D01*
X183583411Y-62275990D01*
X183826632Y-62113475D01*
X184033475Y-61906632D01*
X184195990Y-61663411D01*
X184307932Y-61393158D01*
X184365000Y-61106260D01*
X184365000Y-60813740D01*
X184307932Y-60526842D01*
X184195990Y-60256589D01*
X184033475Y-60013368D01*
X183826632Y-59806525D01*
X183583411Y-59644010D01*
X183313158Y-59532068D01*
X183026260Y-59475000D01*
X182733740Y-59475000D01*
X182446842Y-59532068D01*
X182176589Y-59644010D01*
X181933368Y-59806525D01*
X181801513Y-59938380D01*
X181779502Y-59865820D01*
X181720537Y-59755506D01*
X181641185Y-59658815D01*
X181544494Y-59579463D01*
X181434180Y-59520498D01*
X181314482Y-59484188D01*
X181190000Y-59471928D01*
X179490000Y-59471928D01*
X179365518Y-59484188D01*
X179245820Y-59520498D01*
X179135506Y-59579463D01*
X179038815Y-59658815D01*
X178959463Y-59755506D01*
X178900498Y-59865820D01*
X178864188Y-59985518D01*
X178851928Y-60110000D01*
X176478043Y-60110000D01*
X176413475Y-60013368D01*
X176206632Y-59806525D01*
X175963411Y-59644010D01*
X175693158Y-59532068D01*
X175406260Y-59475000D01*
X175113740Y-59475000D01*
X174826842Y-59532068D01*
X174556589Y-59644010D01*
X174313368Y-59806525D01*
X174181513Y-59938380D01*
X174159502Y-59865820D01*
X174100537Y-59755506D01*
X174021185Y-59658815D01*
X173924494Y-59579463D01*
X173814180Y-59520498D01*
X173694482Y-59484188D01*
X173570000Y-59471928D01*
X171870000Y-59471928D01*
X171745518Y-59484188D01*
X171625820Y-59520498D01*
X171515506Y-59579463D01*
X171418815Y-59658815D01*
X171339463Y-59755506D01*
X171280498Y-59865820D01*
X171244188Y-59985518D01*
X171231928Y-60110000D01*
X165683043Y-60110000D01*
X165618475Y-60013368D01*
X165411632Y-59806525D01*
X165237240Y-59690000D01*
X165411632Y-59573475D01*
X165618475Y-59366632D01*
X165780990Y-59123411D01*
X165892932Y-58853158D01*
X165950000Y-58566260D01*
X165950000Y-58273740D01*
X165892932Y-57986842D01*
X165780990Y-57716589D01*
X165618475Y-57473368D01*
X165411632Y-57266525D01*
X165237240Y-57150000D01*
X165411632Y-57033475D01*
X165618475Y-56826632D01*
X165780990Y-56583411D01*
X165892932Y-56313158D01*
X165950000Y-56026260D01*
X165950000Y-55733740D01*
X165892932Y-55446842D01*
X165780990Y-55176589D01*
X165618475Y-54933368D01*
X165411632Y-54726525D01*
X165229466Y-54604805D01*
X165346355Y-54535178D01*
X165562588Y-54340269D01*
X165736641Y-54106920D01*
X165861825Y-53844099D01*
X165906476Y-53696890D01*
X165785155Y-53467000D01*
X164592000Y-53467000D01*
X164592000Y-53487000D01*
X164338000Y-53487000D01*
X164338000Y-53467000D01*
X163144845Y-53467000D01*
X163023524Y-53696890D01*
X163068175Y-53844099D01*
X163193359Y-54106920D01*
X163367412Y-54340269D01*
X163583645Y-54535178D01*
X163700534Y-54604805D01*
X163518368Y-54726525D01*
X163311525Y-54933368D01*
X163149010Y-55176589D01*
X163037068Y-55446842D01*
X162980000Y-55733740D01*
X161950000Y-55733740D01*
X161950000Y-53238061D01*
X169145000Y-53238061D01*
X169145000Y-53441939D01*
X169184774Y-53641898D01*
X169262795Y-53830256D01*
X169376063Y-53999774D01*
X169520226Y-54143937D01*
X169689744Y-54257205D01*
X169878102Y-54335226D01*
X170078061Y-54375000D01*
X170140199Y-54375000D01*
X171521201Y-55756003D01*
X171544999Y-55785001D01*
X171660724Y-55879974D01*
X171792753Y-55950546D01*
X171936014Y-55994003D01*
X172047667Y-56005000D01*
X172047677Y-56005000D01*
X172085000Y-56008676D01*
X172122323Y-56005000D01*
X180271289Y-56005000D01*
X180315226Y-56048937D01*
X180484744Y-56162205D01*
X180673102Y-56240226D01*
X180873061Y-56280000D01*
X181076939Y-56280000D01*
X181276898Y-56240226D01*
X181465256Y-56162205D01*
X181634774Y-56048937D01*
X181778937Y-55904774D01*
X181892205Y-55735256D01*
X181970226Y-55546898D01*
X182010000Y-55346939D01*
X182010000Y-55143061D01*
X181970226Y-54943102D01*
X181892205Y-54754744D01*
X181778937Y-54585226D01*
X181634774Y-54441063D01*
X181465256Y-54327795D01*
X181276898Y-54249774D01*
X181076939Y-54210000D01*
X180873061Y-54210000D01*
X180673102Y-54249774D01*
X180484744Y-54327795D01*
X180315226Y-54441063D01*
X180271289Y-54485000D01*
X172399802Y-54485000D01*
X171215000Y-53300199D01*
X171215000Y-53238061D01*
X183750000Y-53238061D01*
X183750000Y-53441939D01*
X183789774Y-53641898D01*
X183867795Y-53830256D01*
X183981063Y-53999774D01*
X184025001Y-54043712D01*
X184025000Y-58949758D01*
X184021324Y-58987081D01*
X184025000Y-59024403D01*
X184025000Y-59024413D01*
X184035997Y-59136066D01*
X184079454Y-59279327D01*
X184150026Y-59411357D01*
X184189871Y-59459907D01*
X184244999Y-59527082D01*
X184274003Y-59550885D01*
X186194120Y-61471003D01*
X186217918Y-61500001D01*
X186333643Y-61594974D01*
X186465672Y-61665546D01*
X186608933Y-61709003D01*
X186679091Y-61715913D01*
X186806525Y-61906632D01*
X187013368Y-62113475D01*
X187256589Y-62275990D01*
X187526842Y-62387932D01*
X187813740Y-62445000D01*
X188106260Y-62445000D01*
X188393158Y-62387932D01*
X188663411Y-62275990D01*
X188906632Y-62113475D01*
X189113475Y-61906632D01*
X189275990Y-61663411D01*
X189387932Y-61393158D01*
X189445000Y-61106260D01*
X189445000Y-60813740D01*
X189387932Y-60526842D01*
X189275990Y-60256589D01*
X189113475Y-60013368D01*
X188906632Y-59806525D01*
X188732240Y-59690000D01*
X188906632Y-59573475D01*
X189113475Y-59366632D01*
X189275990Y-59123411D01*
X189387932Y-58853158D01*
X189445000Y-58566260D01*
X189445000Y-58273740D01*
X189387932Y-57986842D01*
X189275990Y-57716589D01*
X189113475Y-57473368D01*
X188981620Y-57341513D01*
X189054180Y-57319502D01*
X189164494Y-57260537D01*
X189261185Y-57181185D01*
X189340537Y-57084494D01*
X189399502Y-56974180D01*
X189435812Y-56854482D01*
X189448072Y-56730000D01*
X189445000Y-56165750D01*
X189286250Y-56007000D01*
X188087000Y-56007000D01*
X188087000Y-56027000D01*
X187833000Y-56027000D01*
X187833000Y-56007000D01*
X187813000Y-56007000D01*
X187813000Y-55753000D01*
X187833000Y-55753000D01*
X187833000Y-54553750D01*
X188087000Y-54553750D01*
X188087000Y-55753000D01*
X189286250Y-55753000D01*
X189445000Y-55594250D01*
X189448072Y-55030000D01*
X189435812Y-54905518D01*
X189399502Y-54785820D01*
X189340537Y-54675506D01*
X189261185Y-54578815D01*
X189164494Y-54499463D01*
X189054180Y-54440498D01*
X188934482Y-54404188D01*
X188810000Y-54391928D01*
X188245750Y-54395000D01*
X188087000Y-54553750D01*
X187833000Y-54553750D01*
X187674250Y-54395000D01*
X187110000Y-54391928D01*
X186985518Y-54404188D01*
X186865820Y-54440498D01*
X186815000Y-54467662D01*
X186815000Y-54043711D01*
X186858937Y-53999774D01*
X186972205Y-53830256D01*
X187050226Y-53641898D01*
X187090000Y-53441939D01*
X187090000Y-53238061D01*
X187050226Y-53038102D01*
X186972205Y-52849744D01*
X186858937Y-52680226D01*
X186714774Y-52536063D01*
X186545256Y-52422795D01*
X186356898Y-52344774D01*
X186156939Y-52305000D01*
X185953061Y-52305000D01*
X185753102Y-52344774D01*
X185564744Y-52422795D01*
X185420000Y-52519510D01*
X185275256Y-52422795D01*
X185086898Y-52344774D01*
X184886939Y-52305000D01*
X184683061Y-52305000D01*
X184483102Y-52344774D01*
X184294744Y-52422795D01*
X184125226Y-52536063D01*
X183981063Y-52680226D01*
X183867795Y-52849744D01*
X183789774Y-53038102D01*
X183750000Y-53238061D01*
X171215000Y-53238061D01*
X171175226Y-53038102D01*
X171097205Y-52849744D01*
X170983937Y-52680226D01*
X170839774Y-52536063D01*
X170670256Y-52422795D01*
X170481898Y-52344774D01*
X170281939Y-52305000D01*
X170078061Y-52305000D01*
X169878102Y-52344774D01*
X169689744Y-52422795D01*
X169520226Y-52536063D01*
X169376063Y-52680226D01*
X169262795Y-52849744D01*
X169184774Y-53038102D01*
X169145000Y-53238061D01*
X161950000Y-53238061D01*
X161950000Y-47410000D01*
X162976928Y-47410000D01*
X162976928Y-49110000D01*
X162989188Y-49234482D01*
X163025498Y-49354180D01*
X163084463Y-49464494D01*
X163163815Y-49561185D01*
X163260506Y-49640537D01*
X163370820Y-49699502D01*
X163443380Y-49721513D01*
X163311525Y-49853368D01*
X163149010Y-50096589D01*
X163037068Y-50366842D01*
X162980000Y-50653740D01*
X162980000Y-50946260D01*
X163037068Y-51233158D01*
X163149010Y-51503411D01*
X163311525Y-51746632D01*
X163518368Y-51953475D01*
X163700534Y-52075195D01*
X163583645Y-52144822D01*
X163367412Y-52339731D01*
X163193359Y-52573080D01*
X163068175Y-52835901D01*
X163023524Y-52983110D01*
X163144845Y-53213000D01*
X164338000Y-53213000D01*
X164338000Y-53193000D01*
X164592000Y-53193000D01*
X164592000Y-53213000D01*
X165785155Y-53213000D01*
X165906476Y-52983110D01*
X165861825Y-52835901D01*
X165736641Y-52573080D01*
X165562588Y-52339731D01*
X165346355Y-52144822D01*
X165229466Y-52075195D01*
X165411632Y-51953475D01*
X165618475Y-51746632D01*
X165780990Y-51503411D01*
X165892932Y-51233158D01*
X165950000Y-50946260D01*
X165950000Y-50653740D01*
X165892932Y-50366842D01*
X165780990Y-50096589D01*
X165618475Y-49853368D01*
X165486620Y-49721513D01*
X165559180Y-49699502D01*
X165669494Y-49640537D01*
X165766185Y-49561185D01*
X165845537Y-49464494D01*
X165904502Y-49354180D01*
X165940812Y-49234482D01*
X165953072Y-49110000D01*
X165953072Y-47523061D01*
X167240000Y-47523061D01*
X167240000Y-47726939D01*
X167279774Y-47926898D01*
X167357795Y-48115256D01*
X167471063Y-48284774D01*
X167615226Y-48428937D01*
X167784744Y-48542205D01*
X167973102Y-48620226D01*
X168173061Y-48660000D01*
X168376939Y-48660000D01*
X168543039Y-48626961D01*
X168510000Y-48793061D01*
X168510000Y-48996939D01*
X168549774Y-49196898D01*
X168627795Y-49385256D01*
X168741063Y-49554774D01*
X168885226Y-49698937D01*
X169054744Y-49812205D01*
X169243102Y-49890226D01*
X169443061Y-49930000D01*
X169646939Y-49930000D01*
X169846898Y-49890226D01*
X170035256Y-49812205D01*
X170204774Y-49698937D01*
X170248711Y-49655000D01*
X183835199Y-49655000D01*
X185020000Y-50839802D01*
X185020000Y-50901939D01*
X185059774Y-51101898D01*
X185137795Y-51290256D01*
X185251063Y-51459774D01*
X185395226Y-51603937D01*
X185564744Y-51717205D01*
X185753102Y-51795226D01*
X185953061Y-51835000D01*
X186156939Y-51835000D01*
X186356898Y-51795226D01*
X186545256Y-51717205D01*
X186714774Y-51603937D01*
X186858937Y-51459774D01*
X186972205Y-51290256D01*
X187050226Y-51101898D01*
X187090000Y-50901939D01*
X187090000Y-50698061D01*
X187050226Y-50498102D01*
X186972205Y-50309744D01*
X186858937Y-50140226D01*
X186714774Y-49996063D01*
X186545256Y-49882795D01*
X186356898Y-49804774D01*
X186156939Y-49765000D01*
X186094802Y-49765000D01*
X184713804Y-48384003D01*
X184690001Y-48354999D01*
X184574276Y-48260026D01*
X184442247Y-48189454D01*
X184298986Y-48145997D01*
X184187333Y-48135000D01*
X184187322Y-48135000D01*
X184150000Y-48131324D01*
X184112678Y-48135000D01*
X175189801Y-48135000D01*
X175934802Y-47390000D01*
X175996939Y-47390000D01*
X176196898Y-47350226D01*
X176385256Y-47272205D01*
X176554774Y-47158937D01*
X176698937Y-47014774D01*
X176812205Y-46845256D01*
X176890226Y-46656898D01*
X176930000Y-46456939D01*
X176930000Y-46253061D01*
X176890226Y-46053102D01*
X176812205Y-45864744D01*
X176698937Y-45695226D01*
X176554774Y-45551063D01*
X176385256Y-45437795D01*
X176196898Y-45359774D01*
X175996939Y-45320000D01*
X175793061Y-45320000D01*
X175593102Y-45359774D01*
X175404744Y-45437795D01*
X175235226Y-45551063D01*
X175091063Y-45695226D01*
X174977795Y-45864744D01*
X174899774Y-46053102D01*
X174860000Y-46253061D01*
X174860000Y-46315198D01*
X174310199Y-46865000D01*
X174058711Y-46865000D01*
X174014774Y-46821063D01*
X173845256Y-46707795D01*
X173656898Y-46629774D01*
X173456939Y-46590000D01*
X173253061Y-46590000D01*
X173053102Y-46629774D01*
X172864744Y-46707795D01*
X172695226Y-46821063D01*
X172651289Y-46865000D01*
X168978711Y-46865000D01*
X168934774Y-46821063D01*
X168765256Y-46707795D01*
X168576898Y-46629774D01*
X168376939Y-46590000D01*
X168173061Y-46590000D01*
X167973102Y-46629774D01*
X167784744Y-46707795D01*
X167615226Y-46821063D01*
X167471063Y-46965226D01*
X167357795Y-47134744D01*
X167279774Y-47323102D01*
X167240000Y-47523061D01*
X165953072Y-47523061D01*
X165953072Y-47410000D01*
X165940812Y-47285518D01*
X165904502Y-47165820D01*
X165845537Y-47055506D01*
X165766185Y-46958815D01*
X165669494Y-46879463D01*
X165559180Y-46820498D01*
X165439482Y-46784188D01*
X165315000Y-46771928D01*
X163615000Y-46771928D01*
X163490518Y-46784188D01*
X163370820Y-46820498D01*
X163260506Y-46879463D01*
X163163815Y-46958815D01*
X163084463Y-47055506D01*
X163025498Y-47165820D01*
X162989188Y-47285518D01*
X162976928Y-47410000D01*
X161950000Y-47410000D01*
X161950000Y-19710000D01*
X192913000Y-19710000D01*
X192913000Y-20205000D01*
M02*
