G04 #@! TF.GenerationSoftware,KiCad,Pcbnew,(5.1.5)-3*
G04 #@! TF.CreationDate,2020-09-19T18:20:04+02:00*
G04 #@! TF.ProjectId,PedalCtrl,50656461-6c43-4747-926c-2e6b69636164,v0.0*
G04 #@! TF.SameCoordinates,Original*
G04 #@! TF.FileFunction,Soldermask,Bot*
G04 #@! TF.FilePolarity,Negative*
%FSLAX46Y46*%
G04 Gerber Fmt 4.6, Leading zero omitted, Abs format (unit mm)*
G04 Created by KiCad (PCBNEW (5.1.5)-3) date 2020-09-19 18:20:04*
%MOMM*%
%LPD*%
G04 APERTURE LIST*
%ADD10C,0.100000*%
G04 APERTURE END LIST*
D10*
G36*
X181241000Y-61861000D02*
G01*
X179439000Y-61861000D01*
X179439000Y-60059000D01*
X181241000Y-60059000D01*
X181241000Y-61861000D01*
G37*
G36*
X175373512Y-60063927D02*
G01*
X175522812Y-60093624D01*
X175686784Y-60161544D01*
X175834354Y-60260147D01*
X175959853Y-60385646D01*
X176058456Y-60533216D01*
X176126376Y-60697188D01*
X176161000Y-60871259D01*
X176161000Y-61048741D01*
X176126376Y-61222812D01*
X176058456Y-61386784D01*
X175959853Y-61534354D01*
X175834354Y-61659853D01*
X175686784Y-61758456D01*
X175522812Y-61826376D01*
X175373512Y-61856073D01*
X175348742Y-61861000D01*
X175171258Y-61861000D01*
X175146488Y-61856073D01*
X174997188Y-61826376D01*
X174833216Y-61758456D01*
X174685646Y-61659853D01*
X174560147Y-61534354D01*
X174461544Y-61386784D01*
X174393624Y-61222812D01*
X174359000Y-61048741D01*
X174359000Y-60871259D01*
X174393624Y-60697188D01*
X174461544Y-60533216D01*
X174560147Y-60385646D01*
X174685646Y-60260147D01*
X174833216Y-60161544D01*
X174997188Y-60093624D01*
X175146488Y-60063927D01*
X175171258Y-60059000D01*
X175348742Y-60059000D01*
X175373512Y-60063927D01*
G37*
G36*
X173621000Y-61861000D02*
G01*
X171819000Y-61861000D01*
X171819000Y-60059000D01*
X173621000Y-60059000D01*
X173621000Y-61861000D01*
G37*
G36*
X164578512Y-60063927D02*
G01*
X164727812Y-60093624D01*
X164891784Y-60161544D01*
X165039354Y-60260147D01*
X165164853Y-60385646D01*
X165263456Y-60533216D01*
X165331376Y-60697188D01*
X165366000Y-60871259D01*
X165366000Y-61048741D01*
X165331376Y-61222812D01*
X165263456Y-61386784D01*
X165164853Y-61534354D01*
X165039354Y-61659853D01*
X164891784Y-61758456D01*
X164727812Y-61826376D01*
X164578512Y-61856073D01*
X164553742Y-61861000D01*
X164376258Y-61861000D01*
X164351488Y-61856073D01*
X164202188Y-61826376D01*
X164038216Y-61758456D01*
X163890646Y-61659853D01*
X163765147Y-61534354D01*
X163666544Y-61386784D01*
X163598624Y-61222812D01*
X163564000Y-61048741D01*
X163564000Y-60871259D01*
X163598624Y-60697188D01*
X163666544Y-60533216D01*
X163765147Y-60385646D01*
X163890646Y-60260147D01*
X164038216Y-60161544D01*
X164202188Y-60093624D01*
X164351488Y-60063927D01*
X164376258Y-60059000D01*
X164553742Y-60059000D01*
X164578512Y-60063927D01*
G37*
G36*
X188073512Y-60063927D02*
G01*
X188222812Y-60093624D01*
X188386784Y-60161544D01*
X188534354Y-60260147D01*
X188659853Y-60385646D01*
X188758456Y-60533216D01*
X188826376Y-60697188D01*
X188861000Y-60871259D01*
X188861000Y-61048741D01*
X188826376Y-61222812D01*
X188758456Y-61386784D01*
X188659853Y-61534354D01*
X188534354Y-61659853D01*
X188386784Y-61758456D01*
X188222812Y-61826376D01*
X188073512Y-61856073D01*
X188048742Y-61861000D01*
X187871258Y-61861000D01*
X187846488Y-61856073D01*
X187697188Y-61826376D01*
X187533216Y-61758456D01*
X187385646Y-61659853D01*
X187260147Y-61534354D01*
X187161544Y-61386784D01*
X187093624Y-61222812D01*
X187059000Y-61048741D01*
X187059000Y-60871259D01*
X187093624Y-60697188D01*
X187161544Y-60533216D01*
X187260147Y-60385646D01*
X187385646Y-60260147D01*
X187533216Y-60161544D01*
X187697188Y-60093624D01*
X187846488Y-60063927D01*
X187871258Y-60059000D01*
X188048742Y-60059000D01*
X188073512Y-60063927D01*
G37*
G36*
X182993512Y-60063927D02*
G01*
X183142812Y-60093624D01*
X183306784Y-60161544D01*
X183454354Y-60260147D01*
X183579853Y-60385646D01*
X183678456Y-60533216D01*
X183746376Y-60697188D01*
X183781000Y-60871259D01*
X183781000Y-61048741D01*
X183746376Y-61222812D01*
X183678456Y-61386784D01*
X183579853Y-61534354D01*
X183454354Y-61659853D01*
X183306784Y-61758456D01*
X183142812Y-61826376D01*
X182993512Y-61856073D01*
X182968742Y-61861000D01*
X182791258Y-61861000D01*
X182766488Y-61856073D01*
X182617188Y-61826376D01*
X182453216Y-61758456D01*
X182305646Y-61659853D01*
X182180147Y-61534354D01*
X182081544Y-61386784D01*
X182013624Y-61222812D01*
X181979000Y-61048741D01*
X181979000Y-60871259D01*
X182013624Y-60697188D01*
X182081544Y-60533216D01*
X182180147Y-60385646D01*
X182305646Y-60260147D01*
X182453216Y-60161544D01*
X182617188Y-60093624D01*
X182766488Y-60063927D01*
X182791258Y-60059000D01*
X182968742Y-60059000D01*
X182993512Y-60063927D01*
G37*
G36*
X229234239Y-55231467D02*
G01*
X229548282Y-55293934D01*
X230139926Y-55539001D01*
X230672392Y-55894784D01*
X231125216Y-56347608D01*
X231480999Y-56880074D01*
X231726066Y-57471718D01*
X231726066Y-57471719D01*
X231851000Y-58099803D01*
X231851000Y-58740197D01*
X231800445Y-58994353D01*
X231726066Y-59368282D01*
X231480999Y-59959926D01*
X231125216Y-60492392D01*
X230672392Y-60945216D01*
X230139926Y-61300999D01*
X229548282Y-61546066D01*
X229234239Y-61608533D01*
X228920197Y-61671000D01*
X228279803Y-61671000D01*
X227965761Y-61608533D01*
X227651718Y-61546066D01*
X227060074Y-61300999D01*
X226527608Y-60945216D01*
X226074784Y-60492392D01*
X225719001Y-59959926D01*
X225473934Y-59368282D01*
X225399555Y-58994353D01*
X225349000Y-58740197D01*
X225349000Y-58099803D01*
X225473934Y-57471719D01*
X225473934Y-57471718D01*
X225719001Y-56880074D01*
X226074784Y-56347608D01*
X226527608Y-55894784D01*
X227060074Y-55539001D01*
X227651718Y-55293934D01*
X227965761Y-55231467D01*
X228279803Y-55169000D01*
X228920197Y-55169000D01*
X229234239Y-55231467D01*
G37*
G36*
X201054072Y-57120918D02*
G01*
X201299939Y-57222759D01*
X201411328Y-57297187D01*
X201521211Y-57370609D01*
X201709391Y-57558789D01*
X201857242Y-57780063D01*
X201959082Y-58025928D01*
X202011000Y-58286937D01*
X202011000Y-58553063D01*
X201959082Y-58814072D01*
X201884408Y-58994353D01*
X201857241Y-59059939D01*
X201709390Y-59281212D01*
X201521212Y-59469390D01*
X201299939Y-59617241D01*
X201299938Y-59617242D01*
X201299937Y-59617242D01*
X201054072Y-59719082D01*
X200793063Y-59771000D01*
X200526937Y-59771000D01*
X200265928Y-59719082D01*
X200020063Y-59617242D01*
X200020062Y-59617242D01*
X200020061Y-59617241D01*
X199798788Y-59469390D01*
X199610610Y-59281212D01*
X199462759Y-59059939D01*
X199435593Y-58994353D01*
X199360918Y-58814072D01*
X199309000Y-58553063D01*
X199309000Y-58286937D01*
X199360918Y-58025928D01*
X199462758Y-57780063D01*
X199610609Y-57558789D01*
X199798789Y-57370609D01*
X199908672Y-57297187D01*
X200020061Y-57222759D01*
X200265928Y-57120918D01*
X200526937Y-57069000D01*
X200793063Y-57069000D01*
X201054072Y-57120918D01*
G37*
G36*
X206054072Y-57120918D02*
G01*
X206299939Y-57222759D01*
X206411328Y-57297187D01*
X206521211Y-57370609D01*
X206709391Y-57558789D01*
X206857242Y-57780063D01*
X206959082Y-58025928D01*
X207011000Y-58286937D01*
X207011000Y-58553063D01*
X206959082Y-58814072D01*
X206884408Y-58994353D01*
X206857241Y-59059939D01*
X206709390Y-59281212D01*
X206521212Y-59469390D01*
X206299939Y-59617241D01*
X206299938Y-59617242D01*
X206299937Y-59617242D01*
X206054072Y-59719082D01*
X205793063Y-59771000D01*
X205526937Y-59771000D01*
X205265928Y-59719082D01*
X205020063Y-59617242D01*
X205020062Y-59617242D01*
X205020061Y-59617241D01*
X204798788Y-59469390D01*
X204610610Y-59281212D01*
X204462759Y-59059939D01*
X204435593Y-58994353D01*
X204360918Y-58814072D01*
X204309000Y-58553063D01*
X204309000Y-58286937D01*
X204360918Y-58025928D01*
X204462758Y-57780063D01*
X204610609Y-57558789D01*
X204798789Y-57370609D01*
X204908672Y-57297187D01*
X205020061Y-57222759D01*
X205265928Y-57120918D01*
X205526937Y-57069000D01*
X205793063Y-57069000D01*
X206054072Y-57120918D01*
G37*
G36*
X212011000Y-59771000D02*
G01*
X209309000Y-59771000D01*
X209309000Y-57069000D01*
X212011000Y-57069000D01*
X212011000Y-59771000D01*
G37*
G36*
X164578512Y-57523927D02*
G01*
X164727812Y-57553624D01*
X164891784Y-57621544D01*
X165039354Y-57720147D01*
X165164853Y-57845646D01*
X165263456Y-57993216D01*
X165331376Y-58157188D01*
X165366000Y-58331259D01*
X165366000Y-58508741D01*
X165331376Y-58682812D01*
X165263456Y-58846784D01*
X165164853Y-58994354D01*
X165039354Y-59119853D01*
X164891784Y-59218456D01*
X164727812Y-59286376D01*
X164578512Y-59316073D01*
X164553742Y-59321000D01*
X164376258Y-59321000D01*
X164351488Y-59316073D01*
X164202188Y-59286376D01*
X164038216Y-59218456D01*
X163890646Y-59119853D01*
X163765147Y-58994354D01*
X163666544Y-58846784D01*
X163598624Y-58682812D01*
X163564000Y-58508741D01*
X163564000Y-58331259D01*
X163598624Y-58157188D01*
X163666544Y-57993216D01*
X163765147Y-57845646D01*
X163890646Y-57720147D01*
X164038216Y-57621544D01*
X164202188Y-57553624D01*
X164351488Y-57523927D01*
X164376258Y-57519000D01*
X164553742Y-57519000D01*
X164578512Y-57523927D01*
G37*
G36*
X188073512Y-57523927D02*
G01*
X188222812Y-57553624D01*
X188386784Y-57621544D01*
X188534354Y-57720147D01*
X188659853Y-57845646D01*
X188758456Y-57993216D01*
X188826376Y-58157188D01*
X188861000Y-58331259D01*
X188861000Y-58508741D01*
X188826376Y-58682812D01*
X188758456Y-58846784D01*
X188659853Y-58994354D01*
X188534354Y-59119853D01*
X188386784Y-59218456D01*
X188222812Y-59286376D01*
X188073512Y-59316073D01*
X188048742Y-59321000D01*
X187871258Y-59321000D01*
X187846488Y-59316073D01*
X187697188Y-59286376D01*
X187533216Y-59218456D01*
X187385646Y-59119853D01*
X187260147Y-58994354D01*
X187161544Y-58846784D01*
X187093624Y-58682812D01*
X187059000Y-58508741D01*
X187059000Y-58331259D01*
X187093624Y-58157188D01*
X187161544Y-57993216D01*
X187260147Y-57845646D01*
X187385646Y-57720147D01*
X187533216Y-57621544D01*
X187697188Y-57553624D01*
X187846488Y-57523927D01*
X187871258Y-57519000D01*
X188048742Y-57519000D01*
X188073512Y-57523927D01*
G37*
G36*
X164578512Y-54983927D02*
G01*
X164727812Y-55013624D01*
X164891784Y-55081544D01*
X165039354Y-55180147D01*
X165164853Y-55305646D01*
X165263456Y-55453216D01*
X165331376Y-55617188D01*
X165366000Y-55791259D01*
X165366000Y-55968741D01*
X165331376Y-56142812D01*
X165263456Y-56306784D01*
X165164853Y-56454354D01*
X165039354Y-56579853D01*
X164891784Y-56678456D01*
X164727812Y-56746376D01*
X164578512Y-56776073D01*
X164553742Y-56781000D01*
X164376258Y-56781000D01*
X164351488Y-56776073D01*
X164202188Y-56746376D01*
X164038216Y-56678456D01*
X163890646Y-56579853D01*
X163765147Y-56454354D01*
X163666544Y-56306784D01*
X163598624Y-56142812D01*
X163564000Y-55968741D01*
X163564000Y-55791259D01*
X163598624Y-55617188D01*
X163666544Y-55453216D01*
X163765147Y-55305646D01*
X163890646Y-55180147D01*
X164038216Y-55081544D01*
X164202188Y-55013624D01*
X164351488Y-54983927D01*
X164376258Y-54979000D01*
X164553742Y-54979000D01*
X164578512Y-54983927D01*
G37*
G36*
X188861000Y-56781000D02*
G01*
X187059000Y-56781000D01*
X187059000Y-54979000D01*
X188861000Y-54979000D01*
X188861000Y-56781000D01*
G37*
G36*
X164578512Y-52443927D02*
G01*
X164727812Y-52473624D01*
X164891784Y-52541544D01*
X165039354Y-52640147D01*
X165164853Y-52765646D01*
X165263456Y-52913216D01*
X165331376Y-53077188D01*
X165366000Y-53251259D01*
X165366000Y-53428741D01*
X165331376Y-53602812D01*
X165263456Y-53766784D01*
X165164853Y-53914354D01*
X165039354Y-54039853D01*
X164891784Y-54138456D01*
X164727812Y-54206376D01*
X164578512Y-54236073D01*
X164553742Y-54241000D01*
X164376258Y-54241000D01*
X164351488Y-54236073D01*
X164202188Y-54206376D01*
X164038216Y-54138456D01*
X163890646Y-54039853D01*
X163765147Y-53914354D01*
X163666544Y-53766784D01*
X163598624Y-53602812D01*
X163564000Y-53428741D01*
X163564000Y-53251259D01*
X163598624Y-53077188D01*
X163666544Y-52913216D01*
X163765147Y-52765646D01*
X163890646Y-52640147D01*
X164038216Y-52541544D01*
X164202188Y-52473624D01*
X164351488Y-52443927D01*
X164376258Y-52439000D01*
X164553742Y-52439000D01*
X164578512Y-52443927D01*
G37*
G36*
X164578512Y-49903927D02*
G01*
X164727812Y-49933624D01*
X164891784Y-50001544D01*
X165039354Y-50100147D01*
X165164853Y-50225646D01*
X165263456Y-50373216D01*
X165331376Y-50537188D01*
X165366000Y-50711259D01*
X165366000Y-50888741D01*
X165331376Y-51062812D01*
X165263456Y-51226784D01*
X165164853Y-51374354D01*
X165039354Y-51499853D01*
X164891784Y-51598456D01*
X164727812Y-51666376D01*
X164578512Y-51696073D01*
X164553742Y-51701000D01*
X164376258Y-51701000D01*
X164351488Y-51696073D01*
X164202188Y-51666376D01*
X164038216Y-51598456D01*
X163890646Y-51499853D01*
X163765147Y-51374354D01*
X163666544Y-51226784D01*
X163598624Y-51062812D01*
X163564000Y-50888741D01*
X163564000Y-50711259D01*
X163598624Y-50537188D01*
X163666544Y-50373216D01*
X163765147Y-50225646D01*
X163890646Y-50100147D01*
X164038216Y-50001544D01*
X164202188Y-49933624D01*
X164351488Y-49903927D01*
X164376258Y-49899000D01*
X164553742Y-49899000D01*
X164578512Y-49903927D01*
G37*
G36*
X165366000Y-49161000D02*
G01*
X163564000Y-49161000D01*
X163564000Y-47359000D01*
X165366000Y-47359000D01*
X165366000Y-49161000D01*
G37*
G36*
X213342585Y-44078802D02*
G01*
X213492410Y-44108604D01*
X213774674Y-44225521D01*
X214028705Y-44395259D01*
X214244741Y-44611295D01*
X214414479Y-44865326D01*
X214531396Y-45147590D01*
X214591000Y-45447240D01*
X214591000Y-45752760D01*
X214531396Y-46052410D01*
X214414479Y-46334674D01*
X214244741Y-46588705D01*
X214028705Y-46804741D01*
X213774674Y-46974479D01*
X213492410Y-47091396D01*
X213342585Y-47121198D01*
X213192761Y-47151000D01*
X212887239Y-47151000D01*
X212737415Y-47121198D01*
X212587590Y-47091396D01*
X212305326Y-46974479D01*
X212051295Y-46804741D01*
X211835259Y-46588705D01*
X211665521Y-46334674D01*
X211548604Y-46052410D01*
X211489000Y-45752760D01*
X211489000Y-45447240D01*
X211548604Y-45147590D01*
X211665521Y-44865326D01*
X211835259Y-44611295D01*
X212051295Y-44395259D01*
X212305326Y-44225521D01*
X212587590Y-44108604D01*
X212737415Y-44078802D01*
X212887239Y-44049000D01*
X213192761Y-44049000D01*
X213342585Y-44078802D01*
G37*
G36*
X193342585Y-44078802D02*
G01*
X193492410Y-44108604D01*
X193774674Y-44225521D01*
X194028705Y-44395259D01*
X194244741Y-44611295D01*
X194414479Y-44865326D01*
X194531396Y-45147590D01*
X194591000Y-45447240D01*
X194591000Y-45752760D01*
X194531396Y-46052410D01*
X194414479Y-46334674D01*
X194244741Y-46588705D01*
X194028705Y-46804741D01*
X193774674Y-46974479D01*
X193492410Y-47091396D01*
X193342585Y-47121198D01*
X193192761Y-47151000D01*
X192887239Y-47151000D01*
X192737415Y-47121198D01*
X192587590Y-47091396D01*
X192305326Y-46974479D01*
X192051295Y-46804741D01*
X191835259Y-46588705D01*
X191665521Y-46334674D01*
X191548604Y-46052410D01*
X191489000Y-45752760D01*
X191489000Y-45447240D01*
X191548604Y-45147590D01*
X191665521Y-44865326D01*
X191835259Y-44611295D01*
X192051295Y-44395259D01*
X192305326Y-44225521D01*
X192587590Y-44108604D01*
X192737415Y-44078802D01*
X192887239Y-44049000D01*
X193192761Y-44049000D01*
X193342585Y-44078802D01*
G37*
G36*
X208342585Y-44078802D02*
G01*
X208492410Y-44108604D01*
X208774674Y-44225521D01*
X209028705Y-44395259D01*
X209244741Y-44611295D01*
X209414479Y-44865326D01*
X209531396Y-45147590D01*
X209591000Y-45447240D01*
X209591000Y-45752760D01*
X209531396Y-46052410D01*
X209414479Y-46334674D01*
X209244741Y-46588705D01*
X209028705Y-46804741D01*
X208774674Y-46974479D01*
X208492410Y-47091396D01*
X208342585Y-47121198D01*
X208192761Y-47151000D01*
X207887239Y-47151000D01*
X207737415Y-47121198D01*
X207587590Y-47091396D01*
X207305326Y-46974479D01*
X207051295Y-46804741D01*
X206835259Y-46588705D01*
X206665521Y-46334674D01*
X206548604Y-46052410D01*
X206489000Y-45752760D01*
X206489000Y-45447240D01*
X206548604Y-45147590D01*
X206665521Y-44865326D01*
X206835259Y-44611295D01*
X207051295Y-44395259D01*
X207305326Y-44225521D01*
X207587590Y-44108604D01*
X207737415Y-44078802D01*
X207887239Y-44049000D01*
X208192761Y-44049000D01*
X208342585Y-44078802D01*
G37*
G36*
X218342585Y-44078802D02*
G01*
X218492410Y-44108604D01*
X218774674Y-44225521D01*
X219028705Y-44395259D01*
X219244741Y-44611295D01*
X219414479Y-44865326D01*
X219531396Y-45147590D01*
X219591000Y-45447240D01*
X219591000Y-45752760D01*
X219531396Y-46052410D01*
X219414479Y-46334674D01*
X219244741Y-46588705D01*
X219028705Y-46804741D01*
X218774674Y-46974479D01*
X218492410Y-47091396D01*
X218342585Y-47121198D01*
X218192761Y-47151000D01*
X217887239Y-47151000D01*
X217737415Y-47121198D01*
X217587590Y-47091396D01*
X217305326Y-46974479D01*
X217051295Y-46804741D01*
X216835259Y-46588705D01*
X216665521Y-46334674D01*
X216548604Y-46052410D01*
X216489000Y-45752760D01*
X216489000Y-45447240D01*
X216548604Y-45147590D01*
X216665521Y-44865326D01*
X216835259Y-44611295D01*
X217051295Y-44395259D01*
X217305326Y-44225521D01*
X217587590Y-44108604D01*
X217737415Y-44078802D01*
X217887239Y-44049000D01*
X218192761Y-44049000D01*
X218342585Y-44078802D01*
G37*
G36*
X218342585Y-36578802D02*
G01*
X218492410Y-36608604D01*
X218774674Y-36725521D01*
X219028705Y-36895259D01*
X219244741Y-37111295D01*
X219414479Y-37365326D01*
X219531396Y-37647590D01*
X219591000Y-37947240D01*
X219591000Y-38252760D01*
X219531396Y-38552410D01*
X219414479Y-38834674D01*
X219244741Y-39088705D01*
X219028705Y-39304741D01*
X218774674Y-39474479D01*
X218492410Y-39591396D01*
X218342585Y-39621198D01*
X218192761Y-39651000D01*
X217887239Y-39651000D01*
X217737415Y-39621198D01*
X217587590Y-39591396D01*
X217305326Y-39474479D01*
X217051295Y-39304741D01*
X216835259Y-39088705D01*
X216665521Y-38834674D01*
X216548604Y-38552410D01*
X216489000Y-38252760D01*
X216489000Y-37947240D01*
X216548604Y-37647590D01*
X216665521Y-37365326D01*
X216835259Y-37111295D01*
X217051295Y-36895259D01*
X217305326Y-36725521D01*
X217587590Y-36608604D01*
X217737415Y-36578802D01*
X217887239Y-36549000D01*
X218192761Y-36549000D01*
X218342585Y-36578802D01*
G37*
G36*
X208342585Y-36578802D02*
G01*
X208492410Y-36608604D01*
X208774674Y-36725521D01*
X209028705Y-36895259D01*
X209244741Y-37111295D01*
X209414479Y-37365326D01*
X209531396Y-37647590D01*
X209591000Y-37947240D01*
X209591000Y-38252760D01*
X209531396Y-38552410D01*
X209414479Y-38834674D01*
X209244741Y-39088705D01*
X209028705Y-39304741D01*
X208774674Y-39474479D01*
X208492410Y-39591396D01*
X208342585Y-39621198D01*
X208192761Y-39651000D01*
X207887239Y-39651000D01*
X207737415Y-39621198D01*
X207587590Y-39591396D01*
X207305326Y-39474479D01*
X207051295Y-39304741D01*
X206835259Y-39088705D01*
X206665521Y-38834674D01*
X206548604Y-38552410D01*
X206489000Y-38252760D01*
X206489000Y-37947240D01*
X206548604Y-37647590D01*
X206665521Y-37365326D01*
X206835259Y-37111295D01*
X207051295Y-36895259D01*
X207305326Y-36725521D01*
X207587590Y-36608604D01*
X207737415Y-36578802D01*
X207887239Y-36549000D01*
X208192761Y-36549000D01*
X208342585Y-36578802D01*
G37*
G36*
X213342585Y-36578802D02*
G01*
X213492410Y-36608604D01*
X213774674Y-36725521D01*
X214028705Y-36895259D01*
X214244741Y-37111295D01*
X214414479Y-37365326D01*
X214531396Y-37647590D01*
X214591000Y-37947240D01*
X214591000Y-38252760D01*
X214531396Y-38552410D01*
X214414479Y-38834674D01*
X214244741Y-39088705D01*
X214028705Y-39304741D01*
X213774674Y-39474479D01*
X213492410Y-39591396D01*
X213342585Y-39621198D01*
X213192761Y-39651000D01*
X212887239Y-39651000D01*
X212737415Y-39621198D01*
X212587590Y-39591396D01*
X212305326Y-39474479D01*
X212051295Y-39304741D01*
X211835259Y-39088705D01*
X211665521Y-38834674D01*
X211548604Y-38552410D01*
X211489000Y-38252760D01*
X211489000Y-37947240D01*
X211548604Y-37647590D01*
X211665521Y-37365326D01*
X211835259Y-37111295D01*
X212051295Y-36895259D01*
X212305326Y-36725521D01*
X212587590Y-36608604D01*
X212737415Y-36578802D01*
X212887239Y-36549000D01*
X213192761Y-36549000D01*
X213342585Y-36578802D01*
G37*
G36*
X194591000Y-39651000D02*
G01*
X191489000Y-39651000D01*
X191489000Y-36549000D01*
X194591000Y-36549000D01*
X194591000Y-39651000D01*
G37*
G36*
X168274239Y-22211467D02*
G01*
X168588282Y-22273934D01*
X169179926Y-22519001D01*
X169712392Y-22874784D01*
X170165216Y-23327608D01*
X170520999Y-23860074D01*
X170766066Y-24451718D01*
X170766066Y-24451719D01*
X170891000Y-25079803D01*
X170891000Y-25720197D01*
X170828533Y-26034239D01*
X170766066Y-26348282D01*
X170520999Y-26939926D01*
X170165216Y-27472392D01*
X169712392Y-27925216D01*
X169179926Y-28280999D01*
X168588282Y-28526066D01*
X168274239Y-28588533D01*
X167960197Y-28651000D01*
X167319803Y-28651000D01*
X167005761Y-28588533D01*
X166691718Y-28526066D01*
X166100074Y-28280999D01*
X165567608Y-27925216D01*
X165114784Y-27472392D01*
X164759001Y-26939926D01*
X164513934Y-26348282D01*
X164451467Y-26034239D01*
X164389000Y-25720197D01*
X164389000Y-25079803D01*
X164513934Y-24451719D01*
X164513934Y-24451718D01*
X164759001Y-23860074D01*
X165114784Y-23327608D01*
X165567608Y-22874784D01*
X166100074Y-22519001D01*
X166691718Y-22273934D01*
X167005761Y-22211467D01*
X167319803Y-22149000D01*
X167960197Y-22149000D01*
X168274239Y-22211467D01*
G37*
G36*
X181691000Y-26751000D02*
G01*
X178989000Y-26751000D01*
X178989000Y-24049000D01*
X181691000Y-24049000D01*
X181691000Y-26751000D01*
G37*
G36*
X185734072Y-24100918D02*
G01*
X185979939Y-24202759D01*
X186201212Y-24350610D01*
X186389390Y-24538788D01*
X186537241Y-24760061D01*
X186639082Y-25005928D01*
X186691000Y-25266938D01*
X186691000Y-25533062D01*
X186639082Y-25794072D01*
X186537241Y-26039939D01*
X186389390Y-26261212D01*
X186201212Y-26449390D01*
X185979939Y-26597241D01*
X185979938Y-26597242D01*
X185979937Y-26597242D01*
X185734072Y-26699082D01*
X185473063Y-26751000D01*
X185206937Y-26751000D01*
X184945928Y-26699082D01*
X184700063Y-26597242D01*
X184700062Y-26597242D01*
X184700061Y-26597241D01*
X184478788Y-26449390D01*
X184290610Y-26261212D01*
X184142759Y-26039939D01*
X184040918Y-25794072D01*
X183989000Y-25533062D01*
X183989000Y-25266938D01*
X184040918Y-25005928D01*
X184142759Y-24760061D01*
X184290610Y-24538788D01*
X184478788Y-24350610D01*
X184700061Y-24202759D01*
X184945928Y-24100918D01*
X185206937Y-24049000D01*
X185473063Y-24049000D01*
X185734072Y-24100918D01*
G37*
G36*
X202011000Y-26751000D02*
G01*
X199309000Y-26751000D01*
X199309000Y-24049000D01*
X202011000Y-24049000D01*
X202011000Y-26751000D01*
G37*
G36*
X206054072Y-24100918D02*
G01*
X206299939Y-24202759D01*
X206521212Y-24350610D01*
X206709390Y-24538788D01*
X206857241Y-24760061D01*
X206959082Y-25005928D01*
X207011000Y-25266938D01*
X207011000Y-25533062D01*
X206959082Y-25794072D01*
X206857241Y-26039939D01*
X206709390Y-26261212D01*
X206521212Y-26449390D01*
X206299939Y-26597241D01*
X206299938Y-26597242D01*
X206299937Y-26597242D01*
X206054072Y-26699082D01*
X205793063Y-26751000D01*
X205526937Y-26751000D01*
X205265928Y-26699082D01*
X205020063Y-26597242D01*
X205020062Y-26597242D01*
X205020061Y-26597241D01*
X204798788Y-26449390D01*
X204610610Y-26261212D01*
X204462759Y-26039939D01*
X204360918Y-25794072D01*
X204309000Y-25533062D01*
X204309000Y-25266938D01*
X204360918Y-25005928D01*
X204462759Y-24760061D01*
X204610610Y-24538788D01*
X204798788Y-24350610D01*
X205020061Y-24202759D01*
X205265928Y-24100918D01*
X205526937Y-24049000D01*
X205793063Y-24049000D01*
X206054072Y-24100918D01*
G37*
G36*
X211054072Y-24100918D02*
G01*
X211299939Y-24202759D01*
X211521212Y-24350610D01*
X211709390Y-24538788D01*
X211857241Y-24760061D01*
X211959082Y-25005928D01*
X212011000Y-25266938D01*
X212011000Y-25533062D01*
X211959082Y-25794072D01*
X211857241Y-26039939D01*
X211709390Y-26261212D01*
X211521212Y-26449390D01*
X211299939Y-26597241D01*
X211299938Y-26597242D01*
X211299937Y-26597242D01*
X211054072Y-26699082D01*
X210793063Y-26751000D01*
X210526937Y-26751000D01*
X210265928Y-26699082D01*
X210020063Y-26597242D01*
X210020062Y-26597242D01*
X210020061Y-26597241D01*
X209798788Y-26449390D01*
X209610610Y-26261212D01*
X209462759Y-26039939D01*
X209360918Y-25794072D01*
X209309000Y-25533062D01*
X209309000Y-25266938D01*
X209360918Y-25005928D01*
X209462759Y-24760061D01*
X209610610Y-24538788D01*
X209798788Y-24350610D01*
X210020061Y-24202759D01*
X210265928Y-24100918D01*
X210526937Y-24049000D01*
X210793063Y-24049000D01*
X211054072Y-24100918D01*
G37*
G36*
X231374072Y-24100918D02*
G01*
X231619939Y-24202759D01*
X231841212Y-24350610D01*
X232029390Y-24538788D01*
X232177241Y-24760061D01*
X232279082Y-25005928D01*
X232331000Y-25266938D01*
X232331000Y-25533062D01*
X232279082Y-25794072D01*
X232177241Y-26039939D01*
X232029390Y-26261212D01*
X231841212Y-26449390D01*
X231619939Y-26597241D01*
X231619938Y-26597242D01*
X231619937Y-26597242D01*
X231374072Y-26699082D01*
X231113063Y-26751000D01*
X230846937Y-26751000D01*
X230585928Y-26699082D01*
X230340063Y-26597242D01*
X230340062Y-26597242D01*
X230340061Y-26597241D01*
X230118788Y-26449390D01*
X229930610Y-26261212D01*
X229782759Y-26039939D01*
X229680918Y-25794072D01*
X229629000Y-25533062D01*
X229629000Y-25266938D01*
X229680918Y-25005928D01*
X229782759Y-24760061D01*
X229930610Y-24538788D01*
X230118788Y-24350610D01*
X230340061Y-24202759D01*
X230585928Y-24100918D01*
X230846937Y-24049000D01*
X231113063Y-24049000D01*
X231374072Y-24100918D01*
G37*
G36*
X226374072Y-24100918D02*
G01*
X226619939Y-24202759D01*
X226841212Y-24350610D01*
X227029390Y-24538788D01*
X227177241Y-24760061D01*
X227279082Y-25005928D01*
X227331000Y-25266938D01*
X227331000Y-25533062D01*
X227279082Y-25794072D01*
X227177241Y-26039939D01*
X227029390Y-26261212D01*
X226841212Y-26449390D01*
X226619939Y-26597241D01*
X226619938Y-26597242D01*
X226619937Y-26597242D01*
X226374072Y-26699082D01*
X226113063Y-26751000D01*
X225846937Y-26751000D01*
X225585928Y-26699082D01*
X225340063Y-26597242D01*
X225340062Y-26597242D01*
X225340061Y-26597241D01*
X225118788Y-26449390D01*
X224930610Y-26261212D01*
X224782759Y-26039939D01*
X224680918Y-25794072D01*
X224629000Y-25533062D01*
X224629000Y-25266938D01*
X224680918Y-25005928D01*
X224782759Y-24760061D01*
X224930610Y-24538788D01*
X225118788Y-24350610D01*
X225340061Y-24202759D01*
X225585928Y-24100918D01*
X225846937Y-24049000D01*
X226113063Y-24049000D01*
X226374072Y-24100918D01*
G37*
G36*
X222331000Y-26751000D02*
G01*
X219629000Y-26751000D01*
X219629000Y-24049000D01*
X222331000Y-24049000D01*
X222331000Y-26751000D01*
G37*
M02*
