M48
; DRILL file {KiCad (5.1.5)-3} date 9/19/2020 6:20:05 PM
; FORMAT={-:-/ absolute / inch / decimal}
; #@! TF.CreationDate,2020-09-19T18:20:05+02:00
; #@! TF.GenerationSoftware,Kicad,Pcbnew,(5.1.5)-3
; #@! TF.FileFunction,Plated,1,2,PTH
FMAT,2
INCH
T1C0.0157
T2C0.0197
T3C0.0394
T4C0.0512
T5C0.0591
T6C0.1260
%
G90
G05
T1
X6.575Y-1.925
X6.625Y-1.875
X6.675Y-1.925
X6.7Y-2.1
X6.8Y-2.1
X6.825Y-1.875
X6.925Y-1.825
X7.125Y-2.175
X7.275Y-2.1
X7.325Y-2.0
X7.325Y-2.1
T2
X6.5055Y-1.0
X6.5332Y-0.9332
X6.5332Y-1.0668
X6.6Y-0.9055
X6.6Y-1.0945
X6.6668Y-0.9332
X6.6668Y-1.0668
X6.6945Y-1.0
X8.9055Y-2.3
X8.9332Y-2.2332
X8.9332Y-2.3668
X9.0Y-2.2055
X9.0Y-2.3945
X9.0668Y-2.2332
X9.0668Y-2.3668
X9.0945Y-2.3
T3
X6.475Y-1.9
X6.475Y-2.0
X6.475Y-2.1
X6.475Y-2.2
X6.475Y-2.3
X6.475Y-2.4
X7.4Y-2.2
X7.4Y-2.3
X7.4Y-2.4
X7.1Y-2.4
X7.2Y-2.4
X6.8Y-2.4
X6.9Y-2.4
T4
X8.7Y-1.0
X8.8969Y-1.0
X9.0937Y-1.0
X7.9Y-2.3
X8.0969Y-2.3
X8.2937Y-2.3
X7.1Y-1.0
X7.2969Y-1.0
X7.9Y-1.0
X8.0969Y-1.0
X8.2937Y-1.0
T5
X7.6Y-1.5
X7.6Y-1.7953
X8.1906Y-1.5
X8.1906Y-1.7953
X8.3874Y-1.5
X8.3874Y-1.7953
X8.5843Y-1.5
X8.5843Y-1.7953
T6
X6.6Y-1.0
X9.0Y-2.3
T0
M30
