G04 #@! TF.GenerationSoftware,KiCad,Pcbnew,(5.1.5)-3*
G04 #@! TF.CreationDate,2020-09-19T18:20:04+02:00*
G04 #@! TF.ProjectId,PedalCtrl,50656461-6c43-4747-926c-2e6b69636164,v0.0*
G04 #@! TF.SameCoordinates,Original*
G04 #@! TF.FileFunction,Paste,Top*
G04 #@! TF.FilePolarity,Positive*
%FSLAX46Y46*%
G04 Gerber Fmt 4.6, Leading zero omitted, Abs format (unit mm)*
G04 Created by KiCad (PCBNEW (5.1.5)-3) date 2020-09-19 18:20:04*
%MOMM*%
%LPD*%
G04 APERTURE LIST*
%ADD10C,0.100000*%
%ADD11R,3.050000X2.750000*%
%ADD12R,2.200000X1.200000*%
%ADD13R,1.100000X1.100000*%
%ADD14R,0.900000X1.200000*%
G04 APERTURE END LIST*
D10*
G36*
X172249703Y-49760722D02*
G01*
X172264264Y-49762882D01*
X172278543Y-49766459D01*
X172292403Y-49771418D01*
X172305710Y-49777712D01*
X172318336Y-49785280D01*
X172330159Y-49794048D01*
X172341066Y-49803934D01*
X172350952Y-49814841D01*
X172359720Y-49826664D01*
X172367288Y-49839290D01*
X172373582Y-49852597D01*
X172378541Y-49866457D01*
X172382118Y-49880736D01*
X172384278Y-49895297D01*
X172385000Y-49910000D01*
X172385000Y-51560000D01*
X172384278Y-51574703D01*
X172382118Y-51589264D01*
X172378541Y-51603543D01*
X172373582Y-51617403D01*
X172367288Y-51630710D01*
X172359720Y-51643336D01*
X172350952Y-51655159D01*
X172341066Y-51666066D01*
X172330159Y-51675952D01*
X172318336Y-51684720D01*
X172305710Y-51692288D01*
X172292403Y-51698582D01*
X172278543Y-51703541D01*
X172264264Y-51707118D01*
X172249703Y-51709278D01*
X172235000Y-51710000D01*
X171935000Y-51710000D01*
X171920297Y-51709278D01*
X171905736Y-51707118D01*
X171891457Y-51703541D01*
X171877597Y-51698582D01*
X171864290Y-51692288D01*
X171851664Y-51684720D01*
X171839841Y-51675952D01*
X171828934Y-51666066D01*
X171819048Y-51655159D01*
X171810280Y-51643336D01*
X171802712Y-51630710D01*
X171796418Y-51617403D01*
X171791459Y-51603543D01*
X171787882Y-51589264D01*
X171785722Y-51574703D01*
X171785000Y-51560000D01*
X171785000Y-49910000D01*
X171785722Y-49895297D01*
X171787882Y-49880736D01*
X171791459Y-49866457D01*
X171796418Y-49852597D01*
X171802712Y-49839290D01*
X171810280Y-49826664D01*
X171819048Y-49814841D01*
X171828934Y-49803934D01*
X171839841Y-49794048D01*
X171851664Y-49785280D01*
X171864290Y-49777712D01*
X171877597Y-49771418D01*
X171891457Y-49766459D01*
X171905736Y-49762882D01*
X171920297Y-49760722D01*
X171935000Y-49760000D01*
X172235000Y-49760000D01*
X172249703Y-49760722D01*
G37*
G36*
X170979703Y-49760722D02*
G01*
X170994264Y-49762882D01*
X171008543Y-49766459D01*
X171022403Y-49771418D01*
X171035710Y-49777712D01*
X171048336Y-49785280D01*
X171060159Y-49794048D01*
X171071066Y-49803934D01*
X171080952Y-49814841D01*
X171089720Y-49826664D01*
X171097288Y-49839290D01*
X171103582Y-49852597D01*
X171108541Y-49866457D01*
X171112118Y-49880736D01*
X171114278Y-49895297D01*
X171115000Y-49910000D01*
X171115000Y-51560000D01*
X171114278Y-51574703D01*
X171112118Y-51589264D01*
X171108541Y-51603543D01*
X171103582Y-51617403D01*
X171097288Y-51630710D01*
X171089720Y-51643336D01*
X171080952Y-51655159D01*
X171071066Y-51666066D01*
X171060159Y-51675952D01*
X171048336Y-51684720D01*
X171035710Y-51692288D01*
X171022403Y-51698582D01*
X171008543Y-51703541D01*
X170994264Y-51707118D01*
X170979703Y-51709278D01*
X170965000Y-51710000D01*
X170665000Y-51710000D01*
X170650297Y-51709278D01*
X170635736Y-51707118D01*
X170621457Y-51703541D01*
X170607597Y-51698582D01*
X170594290Y-51692288D01*
X170581664Y-51684720D01*
X170569841Y-51675952D01*
X170558934Y-51666066D01*
X170549048Y-51655159D01*
X170540280Y-51643336D01*
X170532712Y-51630710D01*
X170526418Y-51617403D01*
X170521459Y-51603543D01*
X170517882Y-51589264D01*
X170515722Y-51574703D01*
X170515000Y-51560000D01*
X170515000Y-49910000D01*
X170515722Y-49895297D01*
X170517882Y-49880736D01*
X170521459Y-49866457D01*
X170526418Y-49852597D01*
X170532712Y-49839290D01*
X170540280Y-49826664D01*
X170549048Y-49814841D01*
X170558934Y-49803934D01*
X170569841Y-49794048D01*
X170581664Y-49785280D01*
X170594290Y-49777712D01*
X170607597Y-49771418D01*
X170621457Y-49766459D01*
X170635736Y-49762882D01*
X170650297Y-49760722D01*
X170665000Y-49760000D01*
X170965000Y-49760000D01*
X170979703Y-49760722D01*
G37*
G36*
X169709703Y-49760722D02*
G01*
X169724264Y-49762882D01*
X169738543Y-49766459D01*
X169752403Y-49771418D01*
X169765710Y-49777712D01*
X169778336Y-49785280D01*
X169790159Y-49794048D01*
X169801066Y-49803934D01*
X169810952Y-49814841D01*
X169819720Y-49826664D01*
X169827288Y-49839290D01*
X169833582Y-49852597D01*
X169838541Y-49866457D01*
X169842118Y-49880736D01*
X169844278Y-49895297D01*
X169845000Y-49910000D01*
X169845000Y-51560000D01*
X169844278Y-51574703D01*
X169842118Y-51589264D01*
X169838541Y-51603543D01*
X169833582Y-51617403D01*
X169827288Y-51630710D01*
X169819720Y-51643336D01*
X169810952Y-51655159D01*
X169801066Y-51666066D01*
X169790159Y-51675952D01*
X169778336Y-51684720D01*
X169765710Y-51692288D01*
X169752403Y-51698582D01*
X169738543Y-51703541D01*
X169724264Y-51707118D01*
X169709703Y-51709278D01*
X169695000Y-51710000D01*
X169395000Y-51710000D01*
X169380297Y-51709278D01*
X169365736Y-51707118D01*
X169351457Y-51703541D01*
X169337597Y-51698582D01*
X169324290Y-51692288D01*
X169311664Y-51684720D01*
X169299841Y-51675952D01*
X169288934Y-51666066D01*
X169279048Y-51655159D01*
X169270280Y-51643336D01*
X169262712Y-51630710D01*
X169256418Y-51617403D01*
X169251459Y-51603543D01*
X169247882Y-51589264D01*
X169245722Y-51574703D01*
X169245000Y-51560000D01*
X169245000Y-49910000D01*
X169245722Y-49895297D01*
X169247882Y-49880736D01*
X169251459Y-49866457D01*
X169256418Y-49852597D01*
X169262712Y-49839290D01*
X169270280Y-49826664D01*
X169279048Y-49814841D01*
X169288934Y-49803934D01*
X169299841Y-49794048D01*
X169311664Y-49785280D01*
X169324290Y-49777712D01*
X169337597Y-49771418D01*
X169351457Y-49766459D01*
X169365736Y-49762882D01*
X169380297Y-49760722D01*
X169395000Y-49760000D01*
X169695000Y-49760000D01*
X169709703Y-49760722D01*
G37*
G36*
X168439703Y-49760722D02*
G01*
X168454264Y-49762882D01*
X168468543Y-49766459D01*
X168482403Y-49771418D01*
X168495710Y-49777712D01*
X168508336Y-49785280D01*
X168520159Y-49794048D01*
X168531066Y-49803934D01*
X168540952Y-49814841D01*
X168549720Y-49826664D01*
X168557288Y-49839290D01*
X168563582Y-49852597D01*
X168568541Y-49866457D01*
X168572118Y-49880736D01*
X168574278Y-49895297D01*
X168575000Y-49910000D01*
X168575000Y-51560000D01*
X168574278Y-51574703D01*
X168572118Y-51589264D01*
X168568541Y-51603543D01*
X168563582Y-51617403D01*
X168557288Y-51630710D01*
X168549720Y-51643336D01*
X168540952Y-51655159D01*
X168531066Y-51666066D01*
X168520159Y-51675952D01*
X168508336Y-51684720D01*
X168495710Y-51692288D01*
X168482403Y-51698582D01*
X168468543Y-51703541D01*
X168454264Y-51707118D01*
X168439703Y-51709278D01*
X168425000Y-51710000D01*
X168125000Y-51710000D01*
X168110297Y-51709278D01*
X168095736Y-51707118D01*
X168081457Y-51703541D01*
X168067597Y-51698582D01*
X168054290Y-51692288D01*
X168041664Y-51684720D01*
X168029841Y-51675952D01*
X168018934Y-51666066D01*
X168009048Y-51655159D01*
X168000280Y-51643336D01*
X167992712Y-51630710D01*
X167986418Y-51617403D01*
X167981459Y-51603543D01*
X167977882Y-51589264D01*
X167975722Y-51574703D01*
X167975000Y-51560000D01*
X167975000Y-49910000D01*
X167975722Y-49895297D01*
X167977882Y-49880736D01*
X167981459Y-49866457D01*
X167986418Y-49852597D01*
X167992712Y-49839290D01*
X168000280Y-49826664D01*
X168009048Y-49814841D01*
X168018934Y-49803934D01*
X168029841Y-49794048D01*
X168041664Y-49785280D01*
X168054290Y-49777712D01*
X168067597Y-49771418D01*
X168081457Y-49766459D01*
X168095736Y-49762882D01*
X168110297Y-49760722D01*
X168125000Y-49760000D01*
X168425000Y-49760000D01*
X168439703Y-49760722D01*
G37*
G36*
X168439703Y-44810722D02*
G01*
X168454264Y-44812882D01*
X168468543Y-44816459D01*
X168482403Y-44821418D01*
X168495710Y-44827712D01*
X168508336Y-44835280D01*
X168520159Y-44844048D01*
X168531066Y-44853934D01*
X168540952Y-44864841D01*
X168549720Y-44876664D01*
X168557288Y-44889290D01*
X168563582Y-44902597D01*
X168568541Y-44916457D01*
X168572118Y-44930736D01*
X168574278Y-44945297D01*
X168575000Y-44960000D01*
X168575000Y-46610000D01*
X168574278Y-46624703D01*
X168572118Y-46639264D01*
X168568541Y-46653543D01*
X168563582Y-46667403D01*
X168557288Y-46680710D01*
X168549720Y-46693336D01*
X168540952Y-46705159D01*
X168531066Y-46716066D01*
X168520159Y-46725952D01*
X168508336Y-46734720D01*
X168495710Y-46742288D01*
X168482403Y-46748582D01*
X168468543Y-46753541D01*
X168454264Y-46757118D01*
X168439703Y-46759278D01*
X168425000Y-46760000D01*
X168125000Y-46760000D01*
X168110297Y-46759278D01*
X168095736Y-46757118D01*
X168081457Y-46753541D01*
X168067597Y-46748582D01*
X168054290Y-46742288D01*
X168041664Y-46734720D01*
X168029841Y-46725952D01*
X168018934Y-46716066D01*
X168009048Y-46705159D01*
X168000280Y-46693336D01*
X167992712Y-46680710D01*
X167986418Y-46667403D01*
X167981459Y-46653543D01*
X167977882Y-46639264D01*
X167975722Y-46624703D01*
X167975000Y-46610000D01*
X167975000Y-44960000D01*
X167975722Y-44945297D01*
X167977882Y-44930736D01*
X167981459Y-44916457D01*
X167986418Y-44902597D01*
X167992712Y-44889290D01*
X168000280Y-44876664D01*
X168009048Y-44864841D01*
X168018934Y-44853934D01*
X168029841Y-44844048D01*
X168041664Y-44835280D01*
X168054290Y-44827712D01*
X168067597Y-44821418D01*
X168081457Y-44816459D01*
X168095736Y-44812882D01*
X168110297Y-44810722D01*
X168125000Y-44810000D01*
X168425000Y-44810000D01*
X168439703Y-44810722D01*
G37*
G36*
X169709703Y-44810722D02*
G01*
X169724264Y-44812882D01*
X169738543Y-44816459D01*
X169752403Y-44821418D01*
X169765710Y-44827712D01*
X169778336Y-44835280D01*
X169790159Y-44844048D01*
X169801066Y-44853934D01*
X169810952Y-44864841D01*
X169819720Y-44876664D01*
X169827288Y-44889290D01*
X169833582Y-44902597D01*
X169838541Y-44916457D01*
X169842118Y-44930736D01*
X169844278Y-44945297D01*
X169845000Y-44960000D01*
X169845000Y-46610000D01*
X169844278Y-46624703D01*
X169842118Y-46639264D01*
X169838541Y-46653543D01*
X169833582Y-46667403D01*
X169827288Y-46680710D01*
X169819720Y-46693336D01*
X169810952Y-46705159D01*
X169801066Y-46716066D01*
X169790159Y-46725952D01*
X169778336Y-46734720D01*
X169765710Y-46742288D01*
X169752403Y-46748582D01*
X169738543Y-46753541D01*
X169724264Y-46757118D01*
X169709703Y-46759278D01*
X169695000Y-46760000D01*
X169395000Y-46760000D01*
X169380297Y-46759278D01*
X169365736Y-46757118D01*
X169351457Y-46753541D01*
X169337597Y-46748582D01*
X169324290Y-46742288D01*
X169311664Y-46734720D01*
X169299841Y-46725952D01*
X169288934Y-46716066D01*
X169279048Y-46705159D01*
X169270280Y-46693336D01*
X169262712Y-46680710D01*
X169256418Y-46667403D01*
X169251459Y-46653543D01*
X169247882Y-46639264D01*
X169245722Y-46624703D01*
X169245000Y-46610000D01*
X169245000Y-44960000D01*
X169245722Y-44945297D01*
X169247882Y-44930736D01*
X169251459Y-44916457D01*
X169256418Y-44902597D01*
X169262712Y-44889290D01*
X169270280Y-44876664D01*
X169279048Y-44864841D01*
X169288934Y-44853934D01*
X169299841Y-44844048D01*
X169311664Y-44835280D01*
X169324290Y-44827712D01*
X169337597Y-44821418D01*
X169351457Y-44816459D01*
X169365736Y-44812882D01*
X169380297Y-44810722D01*
X169395000Y-44810000D01*
X169695000Y-44810000D01*
X169709703Y-44810722D01*
G37*
G36*
X170979703Y-44810722D02*
G01*
X170994264Y-44812882D01*
X171008543Y-44816459D01*
X171022403Y-44821418D01*
X171035710Y-44827712D01*
X171048336Y-44835280D01*
X171060159Y-44844048D01*
X171071066Y-44853934D01*
X171080952Y-44864841D01*
X171089720Y-44876664D01*
X171097288Y-44889290D01*
X171103582Y-44902597D01*
X171108541Y-44916457D01*
X171112118Y-44930736D01*
X171114278Y-44945297D01*
X171115000Y-44960000D01*
X171115000Y-46610000D01*
X171114278Y-46624703D01*
X171112118Y-46639264D01*
X171108541Y-46653543D01*
X171103582Y-46667403D01*
X171097288Y-46680710D01*
X171089720Y-46693336D01*
X171080952Y-46705159D01*
X171071066Y-46716066D01*
X171060159Y-46725952D01*
X171048336Y-46734720D01*
X171035710Y-46742288D01*
X171022403Y-46748582D01*
X171008543Y-46753541D01*
X170994264Y-46757118D01*
X170979703Y-46759278D01*
X170965000Y-46760000D01*
X170665000Y-46760000D01*
X170650297Y-46759278D01*
X170635736Y-46757118D01*
X170621457Y-46753541D01*
X170607597Y-46748582D01*
X170594290Y-46742288D01*
X170581664Y-46734720D01*
X170569841Y-46725952D01*
X170558934Y-46716066D01*
X170549048Y-46705159D01*
X170540280Y-46693336D01*
X170532712Y-46680710D01*
X170526418Y-46667403D01*
X170521459Y-46653543D01*
X170517882Y-46639264D01*
X170515722Y-46624703D01*
X170515000Y-46610000D01*
X170515000Y-44960000D01*
X170515722Y-44945297D01*
X170517882Y-44930736D01*
X170521459Y-44916457D01*
X170526418Y-44902597D01*
X170532712Y-44889290D01*
X170540280Y-44876664D01*
X170549048Y-44864841D01*
X170558934Y-44853934D01*
X170569841Y-44844048D01*
X170581664Y-44835280D01*
X170594290Y-44827712D01*
X170607597Y-44821418D01*
X170621457Y-44816459D01*
X170635736Y-44812882D01*
X170650297Y-44810722D01*
X170665000Y-44810000D01*
X170965000Y-44810000D01*
X170979703Y-44810722D01*
G37*
G36*
X172249703Y-44810722D02*
G01*
X172264264Y-44812882D01*
X172278543Y-44816459D01*
X172292403Y-44821418D01*
X172305710Y-44827712D01*
X172318336Y-44835280D01*
X172330159Y-44844048D01*
X172341066Y-44853934D01*
X172350952Y-44864841D01*
X172359720Y-44876664D01*
X172367288Y-44889290D01*
X172373582Y-44902597D01*
X172378541Y-44916457D01*
X172382118Y-44930736D01*
X172384278Y-44945297D01*
X172385000Y-44960000D01*
X172385000Y-46610000D01*
X172384278Y-46624703D01*
X172382118Y-46639264D01*
X172378541Y-46653543D01*
X172373582Y-46667403D01*
X172367288Y-46680710D01*
X172359720Y-46693336D01*
X172350952Y-46705159D01*
X172341066Y-46716066D01*
X172330159Y-46725952D01*
X172318336Y-46734720D01*
X172305710Y-46742288D01*
X172292403Y-46748582D01*
X172278543Y-46753541D01*
X172264264Y-46757118D01*
X172249703Y-46759278D01*
X172235000Y-46760000D01*
X171935000Y-46760000D01*
X171920297Y-46759278D01*
X171905736Y-46757118D01*
X171891457Y-46753541D01*
X171877597Y-46748582D01*
X171864290Y-46742288D01*
X171851664Y-46734720D01*
X171839841Y-46725952D01*
X171828934Y-46716066D01*
X171819048Y-46705159D01*
X171810280Y-46693336D01*
X171802712Y-46680710D01*
X171796418Y-46667403D01*
X171791459Y-46653543D01*
X171787882Y-46639264D01*
X171785722Y-46624703D01*
X171785000Y-46610000D01*
X171785000Y-44960000D01*
X171785722Y-44945297D01*
X171787882Y-44930736D01*
X171791459Y-44916457D01*
X171796418Y-44902597D01*
X171802712Y-44889290D01*
X171810280Y-44876664D01*
X171819048Y-44864841D01*
X171828934Y-44853934D01*
X171839841Y-44844048D01*
X171851664Y-44835280D01*
X171864290Y-44827712D01*
X171877597Y-44821418D01*
X171891457Y-44816459D01*
X171905736Y-44812882D01*
X171920297Y-44810722D01*
X171935000Y-44810000D01*
X172235000Y-44810000D01*
X172249703Y-44810722D01*
G37*
D11*
X180765000Y-38990000D03*
X184115000Y-35940000D03*
X180765000Y-35940000D03*
X184115000Y-38990000D03*
D12*
X176140000Y-39745000D03*
X176140000Y-35185000D03*
D10*
G36*
X177557691Y-54771053D02*
G01*
X177578926Y-54774203D01*
X177599750Y-54779419D01*
X177619962Y-54786651D01*
X177639368Y-54795830D01*
X177657781Y-54806866D01*
X177675024Y-54819654D01*
X177690930Y-54834070D01*
X177705346Y-54849976D01*
X177718134Y-54867219D01*
X177729170Y-54885632D01*
X177738349Y-54905038D01*
X177745581Y-54925250D01*
X177750797Y-54946074D01*
X177753947Y-54967309D01*
X177755000Y-54988750D01*
X177755000Y-55501250D01*
X177753947Y-55522691D01*
X177750797Y-55543926D01*
X177745581Y-55564750D01*
X177738349Y-55584962D01*
X177729170Y-55604368D01*
X177718134Y-55622781D01*
X177705346Y-55640024D01*
X177690930Y-55655930D01*
X177675024Y-55670346D01*
X177657781Y-55683134D01*
X177639368Y-55694170D01*
X177619962Y-55703349D01*
X177599750Y-55710581D01*
X177578926Y-55715797D01*
X177557691Y-55718947D01*
X177536250Y-55720000D01*
X177098750Y-55720000D01*
X177077309Y-55718947D01*
X177056074Y-55715797D01*
X177035250Y-55710581D01*
X177015038Y-55703349D01*
X176995632Y-55694170D01*
X176977219Y-55683134D01*
X176959976Y-55670346D01*
X176944070Y-55655930D01*
X176929654Y-55640024D01*
X176916866Y-55622781D01*
X176905830Y-55604368D01*
X176896651Y-55584962D01*
X176889419Y-55564750D01*
X176884203Y-55543926D01*
X176881053Y-55522691D01*
X176880000Y-55501250D01*
X176880000Y-54988750D01*
X176881053Y-54967309D01*
X176884203Y-54946074D01*
X176889419Y-54925250D01*
X176896651Y-54905038D01*
X176905830Y-54885632D01*
X176916866Y-54867219D01*
X176929654Y-54849976D01*
X176944070Y-54834070D01*
X176959976Y-54819654D01*
X176977219Y-54806866D01*
X176995632Y-54795830D01*
X177015038Y-54786651D01*
X177035250Y-54779419D01*
X177056074Y-54774203D01*
X177077309Y-54771053D01*
X177098750Y-54770000D01*
X177536250Y-54770000D01*
X177557691Y-54771053D01*
G37*
G36*
X175982691Y-54771053D02*
G01*
X176003926Y-54774203D01*
X176024750Y-54779419D01*
X176044962Y-54786651D01*
X176064368Y-54795830D01*
X176082781Y-54806866D01*
X176100024Y-54819654D01*
X176115930Y-54834070D01*
X176130346Y-54849976D01*
X176143134Y-54867219D01*
X176154170Y-54885632D01*
X176163349Y-54905038D01*
X176170581Y-54925250D01*
X176175797Y-54946074D01*
X176178947Y-54967309D01*
X176180000Y-54988750D01*
X176180000Y-55501250D01*
X176178947Y-55522691D01*
X176175797Y-55543926D01*
X176170581Y-55564750D01*
X176163349Y-55584962D01*
X176154170Y-55604368D01*
X176143134Y-55622781D01*
X176130346Y-55640024D01*
X176115930Y-55655930D01*
X176100024Y-55670346D01*
X176082781Y-55683134D01*
X176064368Y-55694170D01*
X176044962Y-55703349D01*
X176024750Y-55710581D01*
X176003926Y-55715797D01*
X175982691Y-55718947D01*
X175961250Y-55720000D01*
X175523750Y-55720000D01*
X175502309Y-55718947D01*
X175481074Y-55715797D01*
X175460250Y-55710581D01*
X175440038Y-55703349D01*
X175420632Y-55694170D01*
X175402219Y-55683134D01*
X175384976Y-55670346D01*
X175369070Y-55655930D01*
X175354654Y-55640024D01*
X175341866Y-55622781D01*
X175330830Y-55604368D01*
X175321651Y-55584962D01*
X175314419Y-55564750D01*
X175309203Y-55543926D01*
X175306053Y-55522691D01*
X175305000Y-55501250D01*
X175305000Y-54988750D01*
X175306053Y-54967309D01*
X175309203Y-54946074D01*
X175314419Y-54925250D01*
X175321651Y-54905038D01*
X175330830Y-54885632D01*
X175341866Y-54867219D01*
X175354654Y-54849976D01*
X175369070Y-54834070D01*
X175384976Y-54819654D01*
X175402219Y-54806866D01*
X175420632Y-54795830D01*
X175440038Y-54786651D01*
X175460250Y-54779419D01*
X175481074Y-54774203D01*
X175502309Y-54771053D01*
X175523750Y-54770000D01*
X175961250Y-54770000D01*
X175982691Y-54771053D01*
G37*
G36*
X171995191Y-54771053D02*
G01*
X172016426Y-54774203D01*
X172037250Y-54779419D01*
X172057462Y-54786651D01*
X172076868Y-54795830D01*
X172095281Y-54806866D01*
X172112524Y-54819654D01*
X172128430Y-54834070D01*
X172142846Y-54849976D01*
X172155634Y-54867219D01*
X172166670Y-54885632D01*
X172175849Y-54905038D01*
X172183081Y-54925250D01*
X172188297Y-54946074D01*
X172191447Y-54967309D01*
X172192500Y-54988750D01*
X172192500Y-55501250D01*
X172191447Y-55522691D01*
X172188297Y-55543926D01*
X172183081Y-55564750D01*
X172175849Y-55584962D01*
X172166670Y-55604368D01*
X172155634Y-55622781D01*
X172142846Y-55640024D01*
X172128430Y-55655930D01*
X172112524Y-55670346D01*
X172095281Y-55683134D01*
X172076868Y-55694170D01*
X172057462Y-55703349D01*
X172037250Y-55710581D01*
X172016426Y-55715797D01*
X171995191Y-55718947D01*
X171973750Y-55720000D01*
X171536250Y-55720000D01*
X171514809Y-55718947D01*
X171493574Y-55715797D01*
X171472750Y-55710581D01*
X171452538Y-55703349D01*
X171433132Y-55694170D01*
X171414719Y-55683134D01*
X171397476Y-55670346D01*
X171381570Y-55655930D01*
X171367154Y-55640024D01*
X171354366Y-55622781D01*
X171343330Y-55604368D01*
X171334151Y-55584962D01*
X171326919Y-55564750D01*
X171321703Y-55543926D01*
X171318553Y-55522691D01*
X171317500Y-55501250D01*
X171317500Y-54988750D01*
X171318553Y-54967309D01*
X171321703Y-54946074D01*
X171326919Y-54925250D01*
X171334151Y-54905038D01*
X171343330Y-54885632D01*
X171354366Y-54867219D01*
X171367154Y-54849976D01*
X171381570Y-54834070D01*
X171397476Y-54819654D01*
X171414719Y-54806866D01*
X171433132Y-54795830D01*
X171452538Y-54786651D01*
X171472750Y-54779419D01*
X171493574Y-54774203D01*
X171514809Y-54771053D01*
X171536250Y-54770000D01*
X171973750Y-54770000D01*
X171995191Y-54771053D01*
G37*
G36*
X170420191Y-54771053D02*
G01*
X170441426Y-54774203D01*
X170462250Y-54779419D01*
X170482462Y-54786651D01*
X170501868Y-54795830D01*
X170520281Y-54806866D01*
X170537524Y-54819654D01*
X170553430Y-54834070D01*
X170567846Y-54849976D01*
X170580634Y-54867219D01*
X170591670Y-54885632D01*
X170600849Y-54905038D01*
X170608081Y-54925250D01*
X170613297Y-54946074D01*
X170616447Y-54967309D01*
X170617500Y-54988750D01*
X170617500Y-55501250D01*
X170616447Y-55522691D01*
X170613297Y-55543926D01*
X170608081Y-55564750D01*
X170600849Y-55584962D01*
X170591670Y-55604368D01*
X170580634Y-55622781D01*
X170567846Y-55640024D01*
X170553430Y-55655930D01*
X170537524Y-55670346D01*
X170520281Y-55683134D01*
X170501868Y-55694170D01*
X170482462Y-55703349D01*
X170462250Y-55710581D01*
X170441426Y-55715797D01*
X170420191Y-55718947D01*
X170398750Y-55720000D01*
X169961250Y-55720000D01*
X169939809Y-55718947D01*
X169918574Y-55715797D01*
X169897750Y-55710581D01*
X169877538Y-55703349D01*
X169858132Y-55694170D01*
X169839719Y-55683134D01*
X169822476Y-55670346D01*
X169806570Y-55655930D01*
X169792154Y-55640024D01*
X169779366Y-55622781D01*
X169768330Y-55604368D01*
X169759151Y-55584962D01*
X169751919Y-55564750D01*
X169746703Y-55543926D01*
X169743553Y-55522691D01*
X169742500Y-55501250D01*
X169742500Y-54988750D01*
X169743553Y-54967309D01*
X169746703Y-54946074D01*
X169751919Y-54925250D01*
X169759151Y-54905038D01*
X169768330Y-54885632D01*
X169779366Y-54867219D01*
X169792154Y-54849976D01*
X169806570Y-54834070D01*
X169822476Y-54819654D01*
X169839719Y-54806866D01*
X169858132Y-54795830D01*
X169877538Y-54786651D01*
X169897750Y-54779419D01*
X169918574Y-54774203D01*
X169939809Y-54771053D01*
X169961250Y-54770000D01*
X170398750Y-54770000D01*
X170420191Y-54771053D01*
G37*
G36*
X177557691Y-51596053D02*
G01*
X177578926Y-51599203D01*
X177599750Y-51604419D01*
X177619962Y-51611651D01*
X177639368Y-51620830D01*
X177657781Y-51631866D01*
X177675024Y-51644654D01*
X177690930Y-51659070D01*
X177705346Y-51674976D01*
X177718134Y-51692219D01*
X177729170Y-51710632D01*
X177738349Y-51730038D01*
X177745581Y-51750250D01*
X177750797Y-51771074D01*
X177753947Y-51792309D01*
X177755000Y-51813750D01*
X177755000Y-52326250D01*
X177753947Y-52347691D01*
X177750797Y-52368926D01*
X177745581Y-52389750D01*
X177738349Y-52409962D01*
X177729170Y-52429368D01*
X177718134Y-52447781D01*
X177705346Y-52465024D01*
X177690930Y-52480930D01*
X177675024Y-52495346D01*
X177657781Y-52508134D01*
X177639368Y-52519170D01*
X177619962Y-52528349D01*
X177599750Y-52535581D01*
X177578926Y-52540797D01*
X177557691Y-52543947D01*
X177536250Y-52545000D01*
X177098750Y-52545000D01*
X177077309Y-52543947D01*
X177056074Y-52540797D01*
X177035250Y-52535581D01*
X177015038Y-52528349D01*
X176995632Y-52519170D01*
X176977219Y-52508134D01*
X176959976Y-52495346D01*
X176944070Y-52480930D01*
X176929654Y-52465024D01*
X176916866Y-52447781D01*
X176905830Y-52429368D01*
X176896651Y-52409962D01*
X176889419Y-52389750D01*
X176884203Y-52368926D01*
X176881053Y-52347691D01*
X176880000Y-52326250D01*
X176880000Y-51813750D01*
X176881053Y-51792309D01*
X176884203Y-51771074D01*
X176889419Y-51750250D01*
X176896651Y-51730038D01*
X176905830Y-51710632D01*
X176916866Y-51692219D01*
X176929654Y-51674976D01*
X176944070Y-51659070D01*
X176959976Y-51644654D01*
X176977219Y-51631866D01*
X176995632Y-51620830D01*
X177015038Y-51611651D01*
X177035250Y-51604419D01*
X177056074Y-51599203D01*
X177077309Y-51596053D01*
X177098750Y-51595000D01*
X177536250Y-51595000D01*
X177557691Y-51596053D01*
G37*
G36*
X175982691Y-51596053D02*
G01*
X176003926Y-51599203D01*
X176024750Y-51604419D01*
X176044962Y-51611651D01*
X176064368Y-51620830D01*
X176082781Y-51631866D01*
X176100024Y-51644654D01*
X176115930Y-51659070D01*
X176130346Y-51674976D01*
X176143134Y-51692219D01*
X176154170Y-51710632D01*
X176163349Y-51730038D01*
X176170581Y-51750250D01*
X176175797Y-51771074D01*
X176178947Y-51792309D01*
X176180000Y-51813750D01*
X176180000Y-52326250D01*
X176178947Y-52347691D01*
X176175797Y-52368926D01*
X176170581Y-52389750D01*
X176163349Y-52409962D01*
X176154170Y-52429368D01*
X176143134Y-52447781D01*
X176130346Y-52465024D01*
X176115930Y-52480930D01*
X176100024Y-52495346D01*
X176082781Y-52508134D01*
X176064368Y-52519170D01*
X176044962Y-52528349D01*
X176024750Y-52535581D01*
X176003926Y-52540797D01*
X175982691Y-52543947D01*
X175961250Y-52545000D01*
X175523750Y-52545000D01*
X175502309Y-52543947D01*
X175481074Y-52540797D01*
X175460250Y-52535581D01*
X175440038Y-52528349D01*
X175420632Y-52519170D01*
X175402219Y-52508134D01*
X175384976Y-52495346D01*
X175369070Y-52480930D01*
X175354654Y-52465024D01*
X175341866Y-52447781D01*
X175330830Y-52429368D01*
X175321651Y-52409962D01*
X175314419Y-52389750D01*
X175309203Y-52368926D01*
X175306053Y-52347691D01*
X175305000Y-52326250D01*
X175305000Y-51813750D01*
X175306053Y-51792309D01*
X175309203Y-51771074D01*
X175314419Y-51750250D01*
X175321651Y-51730038D01*
X175330830Y-51710632D01*
X175341866Y-51692219D01*
X175354654Y-51674976D01*
X175369070Y-51659070D01*
X175384976Y-51644654D01*
X175402219Y-51631866D01*
X175420632Y-51620830D01*
X175440038Y-51611651D01*
X175460250Y-51604419D01*
X175481074Y-51599203D01*
X175502309Y-51596053D01*
X175523750Y-51595000D01*
X175961250Y-51595000D01*
X175982691Y-51596053D01*
G37*
G36*
X169187691Y-61311053D02*
G01*
X169208926Y-61314203D01*
X169229750Y-61319419D01*
X169249962Y-61326651D01*
X169269368Y-61335830D01*
X169287781Y-61346866D01*
X169305024Y-61359654D01*
X169320930Y-61374070D01*
X169335346Y-61389976D01*
X169348134Y-61407219D01*
X169359170Y-61425632D01*
X169368349Y-61445038D01*
X169375581Y-61465250D01*
X169380797Y-61486074D01*
X169383947Y-61507309D01*
X169385000Y-61528750D01*
X169385000Y-61966250D01*
X169383947Y-61987691D01*
X169380797Y-62008926D01*
X169375581Y-62029750D01*
X169368349Y-62049962D01*
X169359170Y-62069368D01*
X169348134Y-62087781D01*
X169335346Y-62105024D01*
X169320930Y-62120930D01*
X169305024Y-62135346D01*
X169287781Y-62148134D01*
X169269368Y-62159170D01*
X169249962Y-62168349D01*
X169229750Y-62175581D01*
X169208926Y-62180797D01*
X169187691Y-62183947D01*
X169166250Y-62185000D01*
X168653750Y-62185000D01*
X168632309Y-62183947D01*
X168611074Y-62180797D01*
X168590250Y-62175581D01*
X168570038Y-62168349D01*
X168550632Y-62159170D01*
X168532219Y-62148134D01*
X168514976Y-62135346D01*
X168499070Y-62120930D01*
X168484654Y-62105024D01*
X168471866Y-62087781D01*
X168460830Y-62069368D01*
X168451651Y-62049962D01*
X168444419Y-62029750D01*
X168439203Y-62008926D01*
X168436053Y-61987691D01*
X168435000Y-61966250D01*
X168435000Y-61528750D01*
X168436053Y-61507309D01*
X168439203Y-61486074D01*
X168444419Y-61465250D01*
X168451651Y-61445038D01*
X168460830Y-61425632D01*
X168471866Y-61407219D01*
X168484654Y-61389976D01*
X168499070Y-61374070D01*
X168514976Y-61359654D01*
X168532219Y-61346866D01*
X168550632Y-61335830D01*
X168570038Y-61326651D01*
X168590250Y-61319419D01*
X168611074Y-61314203D01*
X168632309Y-61311053D01*
X168653750Y-61310000D01*
X169166250Y-61310000D01*
X169187691Y-61311053D01*
G37*
G36*
X169187691Y-59736053D02*
G01*
X169208926Y-59739203D01*
X169229750Y-59744419D01*
X169249962Y-59751651D01*
X169269368Y-59760830D01*
X169287781Y-59771866D01*
X169305024Y-59784654D01*
X169320930Y-59799070D01*
X169335346Y-59814976D01*
X169348134Y-59832219D01*
X169359170Y-59850632D01*
X169368349Y-59870038D01*
X169375581Y-59890250D01*
X169380797Y-59911074D01*
X169383947Y-59932309D01*
X169385000Y-59953750D01*
X169385000Y-60391250D01*
X169383947Y-60412691D01*
X169380797Y-60433926D01*
X169375581Y-60454750D01*
X169368349Y-60474962D01*
X169359170Y-60494368D01*
X169348134Y-60512781D01*
X169335346Y-60530024D01*
X169320930Y-60545930D01*
X169305024Y-60560346D01*
X169287781Y-60573134D01*
X169269368Y-60584170D01*
X169249962Y-60593349D01*
X169229750Y-60600581D01*
X169208926Y-60605797D01*
X169187691Y-60608947D01*
X169166250Y-60610000D01*
X168653750Y-60610000D01*
X168632309Y-60608947D01*
X168611074Y-60605797D01*
X168590250Y-60600581D01*
X168570038Y-60593349D01*
X168550632Y-60584170D01*
X168532219Y-60573134D01*
X168514976Y-60560346D01*
X168499070Y-60545930D01*
X168484654Y-60530024D01*
X168471866Y-60512781D01*
X168460830Y-60494368D01*
X168451651Y-60474962D01*
X168444419Y-60454750D01*
X168439203Y-60433926D01*
X168436053Y-60412691D01*
X168435000Y-60391250D01*
X168435000Y-59953750D01*
X168436053Y-59932309D01*
X168439203Y-59911074D01*
X168444419Y-59890250D01*
X168451651Y-59870038D01*
X168460830Y-59850632D01*
X168471866Y-59832219D01*
X168484654Y-59814976D01*
X168499070Y-59799070D01*
X168514976Y-59784654D01*
X168532219Y-59771866D01*
X168550632Y-59760830D01*
X168570038Y-59751651D01*
X168590250Y-59744419D01*
X168611074Y-59739203D01*
X168632309Y-59736053D01*
X168653750Y-59735000D01*
X169166250Y-59735000D01*
X169187691Y-59736053D01*
G37*
D11*
X180765000Y-47880000D03*
X184115000Y-44830000D03*
X180765000Y-44830000D03*
X184115000Y-47880000D03*
D12*
X176140000Y-48635000D03*
X176140000Y-44075000D03*
D13*
X187960000Y-47120000D03*
X187960000Y-44320000D03*
D14*
X182625000Y-55245000D03*
X179325000Y-55245000D03*
X179325000Y-52070000D03*
X182625000Y-52070000D03*
D10*
G36*
X170267691Y-42071053D02*
G01*
X170288926Y-42074203D01*
X170309750Y-42079419D01*
X170329962Y-42086651D01*
X170349368Y-42095830D01*
X170367781Y-42106866D01*
X170385024Y-42119654D01*
X170400930Y-42134070D01*
X170415346Y-42149976D01*
X170428134Y-42167219D01*
X170439170Y-42185632D01*
X170448349Y-42205038D01*
X170455581Y-42225250D01*
X170460797Y-42246074D01*
X170463947Y-42267309D01*
X170465000Y-42288750D01*
X170465000Y-42801250D01*
X170463947Y-42822691D01*
X170460797Y-42843926D01*
X170455581Y-42864750D01*
X170448349Y-42884962D01*
X170439170Y-42904368D01*
X170428134Y-42922781D01*
X170415346Y-42940024D01*
X170400930Y-42955930D01*
X170385024Y-42970346D01*
X170367781Y-42983134D01*
X170349368Y-42994170D01*
X170329962Y-43003349D01*
X170309750Y-43010581D01*
X170288926Y-43015797D01*
X170267691Y-43018947D01*
X170246250Y-43020000D01*
X169808750Y-43020000D01*
X169787309Y-43018947D01*
X169766074Y-43015797D01*
X169745250Y-43010581D01*
X169725038Y-43003349D01*
X169705632Y-42994170D01*
X169687219Y-42983134D01*
X169669976Y-42970346D01*
X169654070Y-42955930D01*
X169639654Y-42940024D01*
X169626866Y-42922781D01*
X169615830Y-42904368D01*
X169606651Y-42884962D01*
X169599419Y-42864750D01*
X169594203Y-42843926D01*
X169591053Y-42822691D01*
X169590000Y-42801250D01*
X169590000Y-42288750D01*
X169591053Y-42267309D01*
X169594203Y-42246074D01*
X169599419Y-42225250D01*
X169606651Y-42205038D01*
X169615830Y-42185632D01*
X169626866Y-42167219D01*
X169639654Y-42149976D01*
X169654070Y-42134070D01*
X169669976Y-42119654D01*
X169687219Y-42106866D01*
X169705632Y-42095830D01*
X169725038Y-42086651D01*
X169745250Y-42079419D01*
X169766074Y-42074203D01*
X169787309Y-42071053D01*
X169808750Y-42070000D01*
X170246250Y-42070000D01*
X170267691Y-42071053D01*
G37*
G36*
X171842691Y-42071053D02*
G01*
X171863926Y-42074203D01*
X171884750Y-42079419D01*
X171904962Y-42086651D01*
X171924368Y-42095830D01*
X171942781Y-42106866D01*
X171960024Y-42119654D01*
X171975930Y-42134070D01*
X171990346Y-42149976D01*
X172003134Y-42167219D01*
X172014170Y-42185632D01*
X172023349Y-42205038D01*
X172030581Y-42225250D01*
X172035797Y-42246074D01*
X172038947Y-42267309D01*
X172040000Y-42288750D01*
X172040000Y-42801250D01*
X172038947Y-42822691D01*
X172035797Y-42843926D01*
X172030581Y-42864750D01*
X172023349Y-42884962D01*
X172014170Y-42904368D01*
X172003134Y-42922781D01*
X171990346Y-42940024D01*
X171975930Y-42955930D01*
X171960024Y-42970346D01*
X171942781Y-42983134D01*
X171924368Y-42994170D01*
X171904962Y-43003349D01*
X171884750Y-43010581D01*
X171863926Y-43015797D01*
X171842691Y-43018947D01*
X171821250Y-43020000D01*
X171383750Y-43020000D01*
X171362309Y-43018947D01*
X171341074Y-43015797D01*
X171320250Y-43010581D01*
X171300038Y-43003349D01*
X171280632Y-42994170D01*
X171262219Y-42983134D01*
X171244976Y-42970346D01*
X171229070Y-42955930D01*
X171214654Y-42940024D01*
X171201866Y-42922781D01*
X171190830Y-42904368D01*
X171181651Y-42884962D01*
X171174419Y-42864750D01*
X171169203Y-42843926D01*
X171166053Y-42822691D01*
X171165000Y-42801250D01*
X171165000Y-42288750D01*
X171166053Y-42267309D01*
X171169203Y-42246074D01*
X171174419Y-42225250D01*
X171181651Y-42205038D01*
X171190830Y-42185632D01*
X171201866Y-42167219D01*
X171214654Y-42149976D01*
X171229070Y-42134070D01*
X171244976Y-42119654D01*
X171262219Y-42106866D01*
X171280632Y-42095830D01*
X171300038Y-42086651D01*
X171320250Y-42079419D01*
X171341074Y-42074203D01*
X171362309Y-42071053D01*
X171383750Y-42070000D01*
X171821250Y-42070000D01*
X171842691Y-42071053D01*
G37*
G36*
X188987691Y-50961053D02*
G01*
X189008926Y-50964203D01*
X189029750Y-50969419D01*
X189049962Y-50976651D01*
X189069368Y-50985830D01*
X189087781Y-50996866D01*
X189105024Y-51009654D01*
X189120930Y-51024070D01*
X189135346Y-51039976D01*
X189148134Y-51057219D01*
X189159170Y-51075632D01*
X189168349Y-51095038D01*
X189175581Y-51115250D01*
X189180797Y-51136074D01*
X189183947Y-51157309D01*
X189185000Y-51178750D01*
X189185000Y-51691250D01*
X189183947Y-51712691D01*
X189180797Y-51733926D01*
X189175581Y-51754750D01*
X189168349Y-51774962D01*
X189159170Y-51794368D01*
X189148134Y-51812781D01*
X189135346Y-51830024D01*
X189120930Y-51845930D01*
X189105024Y-51860346D01*
X189087781Y-51873134D01*
X189069368Y-51884170D01*
X189049962Y-51893349D01*
X189029750Y-51900581D01*
X189008926Y-51905797D01*
X188987691Y-51908947D01*
X188966250Y-51910000D01*
X188528750Y-51910000D01*
X188507309Y-51908947D01*
X188486074Y-51905797D01*
X188465250Y-51900581D01*
X188445038Y-51893349D01*
X188425632Y-51884170D01*
X188407219Y-51873134D01*
X188389976Y-51860346D01*
X188374070Y-51845930D01*
X188359654Y-51830024D01*
X188346866Y-51812781D01*
X188335830Y-51794368D01*
X188326651Y-51774962D01*
X188319419Y-51754750D01*
X188314203Y-51733926D01*
X188311053Y-51712691D01*
X188310000Y-51691250D01*
X188310000Y-51178750D01*
X188311053Y-51157309D01*
X188314203Y-51136074D01*
X188319419Y-51115250D01*
X188326651Y-51095038D01*
X188335830Y-51075632D01*
X188346866Y-51057219D01*
X188359654Y-51039976D01*
X188374070Y-51024070D01*
X188389976Y-51009654D01*
X188407219Y-50996866D01*
X188425632Y-50985830D01*
X188445038Y-50976651D01*
X188465250Y-50969419D01*
X188486074Y-50964203D01*
X188507309Y-50961053D01*
X188528750Y-50960000D01*
X188966250Y-50960000D01*
X188987691Y-50961053D01*
G37*
G36*
X187412691Y-50961053D02*
G01*
X187433926Y-50964203D01*
X187454750Y-50969419D01*
X187474962Y-50976651D01*
X187494368Y-50985830D01*
X187512781Y-50996866D01*
X187530024Y-51009654D01*
X187545930Y-51024070D01*
X187560346Y-51039976D01*
X187573134Y-51057219D01*
X187584170Y-51075632D01*
X187593349Y-51095038D01*
X187600581Y-51115250D01*
X187605797Y-51136074D01*
X187608947Y-51157309D01*
X187610000Y-51178750D01*
X187610000Y-51691250D01*
X187608947Y-51712691D01*
X187605797Y-51733926D01*
X187600581Y-51754750D01*
X187593349Y-51774962D01*
X187584170Y-51794368D01*
X187573134Y-51812781D01*
X187560346Y-51830024D01*
X187545930Y-51845930D01*
X187530024Y-51860346D01*
X187512781Y-51873134D01*
X187494368Y-51884170D01*
X187474962Y-51893349D01*
X187454750Y-51900581D01*
X187433926Y-51905797D01*
X187412691Y-51908947D01*
X187391250Y-51910000D01*
X186953750Y-51910000D01*
X186932309Y-51908947D01*
X186911074Y-51905797D01*
X186890250Y-51900581D01*
X186870038Y-51893349D01*
X186850632Y-51884170D01*
X186832219Y-51873134D01*
X186814976Y-51860346D01*
X186799070Y-51845930D01*
X186784654Y-51830024D01*
X186771866Y-51812781D01*
X186760830Y-51794368D01*
X186751651Y-51774962D01*
X186744419Y-51754750D01*
X186739203Y-51733926D01*
X186736053Y-51712691D01*
X186735000Y-51691250D01*
X186735000Y-51178750D01*
X186736053Y-51157309D01*
X186739203Y-51136074D01*
X186744419Y-51115250D01*
X186751651Y-51095038D01*
X186760830Y-51075632D01*
X186771866Y-51057219D01*
X186784654Y-51039976D01*
X186799070Y-51024070D01*
X186814976Y-51009654D01*
X186832219Y-50996866D01*
X186850632Y-50985830D01*
X186870038Y-50976651D01*
X186890250Y-50969419D01*
X186911074Y-50964203D01*
X186932309Y-50961053D01*
X186953750Y-50960000D01*
X187391250Y-50960000D01*
X187412691Y-50961053D01*
G37*
G36*
X166464504Y-36666204D02*
G01*
X166488773Y-36669804D01*
X166512571Y-36675765D01*
X166535671Y-36684030D01*
X166557849Y-36694520D01*
X166578893Y-36707133D01*
X166598598Y-36721747D01*
X166616777Y-36738223D01*
X166633253Y-36756402D01*
X166647867Y-36776107D01*
X166660480Y-36797151D01*
X166670970Y-36819329D01*
X166679235Y-36842429D01*
X166685196Y-36866227D01*
X166688796Y-36890496D01*
X166690000Y-36915000D01*
X166690000Y-38015000D01*
X166688796Y-38039504D01*
X166685196Y-38063773D01*
X166679235Y-38087571D01*
X166670970Y-38110671D01*
X166660480Y-38132849D01*
X166647867Y-38153893D01*
X166633253Y-38173598D01*
X166616777Y-38191777D01*
X166598598Y-38208253D01*
X166578893Y-38222867D01*
X166557849Y-38235480D01*
X166535671Y-38245970D01*
X166512571Y-38254235D01*
X166488773Y-38260196D01*
X166464504Y-38263796D01*
X166440000Y-38265000D01*
X163440000Y-38265000D01*
X163415496Y-38263796D01*
X163391227Y-38260196D01*
X163367429Y-38254235D01*
X163344329Y-38245970D01*
X163322151Y-38235480D01*
X163301107Y-38222867D01*
X163281402Y-38208253D01*
X163263223Y-38191777D01*
X163246747Y-38173598D01*
X163232133Y-38153893D01*
X163219520Y-38132849D01*
X163209030Y-38110671D01*
X163200765Y-38087571D01*
X163194804Y-38063773D01*
X163191204Y-38039504D01*
X163190000Y-38015000D01*
X163190000Y-36915000D01*
X163191204Y-36890496D01*
X163194804Y-36866227D01*
X163200765Y-36842429D01*
X163209030Y-36819329D01*
X163219520Y-36797151D01*
X163232133Y-36776107D01*
X163246747Y-36756402D01*
X163263223Y-36738223D01*
X163281402Y-36721747D01*
X163301107Y-36707133D01*
X163322151Y-36694520D01*
X163344329Y-36684030D01*
X163367429Y-36675765D01*
X163391227Y-36669804D01*
X163415496Y-36666204D01*
X163440000Y-36665000D01*
X166440000Y-36665000D01*
X166464504Y-36666204D01*
G37*
G36*
X171864504Y-36666204D02*
G01*
X171888773Y-36669804D01*
X171912571Y-36675765D01*
X171935671Y-36684030D01*
X171957849Y-36694520D01*
X171978893Y-36707133D01*
X171998598Y-36721747D01*
X172016777Y-36738223D01*
X172033253Y-36756402D01*
X172047867Y-36776107D01*
X172060480Y-36797151D01*
X172070970Y-36819329D01*
X172079235Y-36842429D01*
X172085196Y-36866227D01*
X172088796Y-36890496D01*
X172090000Y-36915000D01*
X172090000Y-38015000D01*
X172088796Y-38039504D01*
X172085196Y-38063773D01*
X172079235Y-38087571D01*
X172070970Y-38110671D01*
X172060480Y-38132849D01*
X172047867Y-38153893D01*
X172033253Y-38173598D01*
X172016777Y-38191777D01*
X171998598Y-38208253D01*
X171978893Y-38222867D01*
X171957849Y-38235480D01*
X171935671Y-38245970D01*
X171912571Y-38254235D01*
X171888773Y-38260196D01*
X171864504Y-38263796D01*
X171840000Y-38265000D01*
X168840000Y-38265000D01*
X168815496Y-38263796D01*
X168791227Y-38260196D01*
X168767429Y-38254235D01*
X168744329Y-38245970D01*
X168722151Y-38235480D01*
X168701107Y-38222867D01*
X168681402Y-38208253D01*
X168663223Y-38191777D01*
X168646747Y-38173598D01*
X168632133Y-38153893D01*
X168619520Y-38132849D01*
X168609030Y-38110671D01*
X168600765Y-38087571D01*
X168594804Y-38063773D01*
X168591204Y-38039504D01*
X168590000Y-38015000D01*
X168590000Y-36915000D01*
X168591204Y-36890496D01*
X168594804Y-36866227D01*
X168600765Y-36842429D01*
X168609030Y-36819329D01*
X168619520Y-36797151D01*
X168632133Y-36776107D01*
X168646747Y-36756402D01*
X168663223Y-36738223D01*
X168681402Y-36721747D01*
X168701107Y-36707133D01*
X168722151Y-36694520D01*
X168744329Y-36684030D01*
X168767429Y-36675765D01*
X168791227Y-36669804D01*
X168815496Y-36666204D01*
X168840000Y-36665000D01*
X171840000Y-36665000D01*
X171864504Y-36666204D01*
G37*
M02*
